SplineFontDB: 3.2
FontName: GTARussian-Regular
FullName: GTA Russian Regular
FamilyName: GTA Russian
Weight: Book
Copyright: Copyright (c) 2012 by Peter Shadow (cyrillic). Based on Pricedown Regular by Ray Larabie (latin). All rights reserved. This font is freeware. http://fonts.by
Version: 3.03 2012
ItalicAngle: 0
UnderlinePosition: -142
UnderlineWidth: 20
Ascent: 800
Descent: 200
InvalidEm: 0
sfntRevision: 0x000300c5
LayerCount: 2
Layer: 0 1 "Back" 1
Layer: 1 1 "Fore" 0
XUID: [1021 516 1881243911 7423155]
StyleMap: 0x0000
FSType: 0
OS2Version: 3
OS2_WeightWidthSlopeOnly: 0
OS2_UseTypoMetrics: 0
CreationTime: 1345376014
ModificationTime: 1345359432
PfmFamily: 81
TTFWeight: 400
TTFWidth: 5
LineGap: 0
VLineGap: 0
Panose: 0 0 0 0 0 0 0 0 0 0
OS2TypoAscent: 634
OS2TypoAOffset: 0
OS2TypoDescent: -158
OS2TypoDOffset: 0
OS2TypoLinegap: 0
OS2WinAscent: 726
OS2WinAOffset: 0
OS2WinDescent: 220
OS2WinDOffset: 0
HheadAscent: 634
HheadAOffset: 0
HheadDescent: -158
HheadDOffset: 0
OS2SubXSize: 700
OS2SubYSize: 650
OS2SubXOff: 0
OS2SubYOff: 140
OS2SupXSize: 700
OS2SupYSize: 650
OS2SupXOff: 0
OS2SupYOff: 477
OS2StrikeYSize: 50
OS2StrikeYPos: 250
OS2CapHeight: 507
OS2XHeight: 507
OS2Vendor: 'pyrs'
OS2CodePages: 20000193.00000000
OS2UnicodeRanges: 80000227.0000000a.00000000.00000000
Lookup: 258 0 0 "'kern' Horizontal Kerning in Latin lookup 0" { "'kern' Horizontal Kerning in Latin lookup 0 subtable"  } ['kern' ('latn' <'dflt' > ) ]
DEI: 91125
TtTable: prep
PUSHW_1
 0
CALL
SVTCA[y-axis]
PUSHW_3
 1
 5
 2
CALL
SVTCA[x-axis]
PUSHW_3
 6
 4
 2
CALL
SVTCA[x-axis]
PUSHW_8
 6
 34
 28
 22
 17
 11
 0
 8
CALL
PUSHW_8
 7
 367
 300
 234
 151
 90
 0
 8
CALL
PUSHW_8
 8
 58
 48
 37
 31
 19
 0
 8
CALL
PUSHW_8
 9
 15
 13
 10
 7
 5
 0
 8
CALL
SVTCA[y-axis]
PUSHW_8
 1
 44
 36
 28
 17
 11
 0
 8
CALL
PUSHW_8
 2
 290
 237
 185
 151
 90
 0
 8
CALL
PUSHW_8
 3
 76
 62
 48
 31
 19
 0
 8
CALL
PUSHW_8
 4
 35
 28
 22
 17
 11
 0
 8
CALL
PUSHW_8
 5
 15
 13
 10
 7
 5
 0
 8
CALL
SVTCA[y-axis]
PUSHW_3
 10
 3
 7
CALL

StartChar: exclam
Encoding: 33 33 4
Width: 206
Flags: W
LayerCount: 2
Fore
SplineSet
21 0 m 1,0,-1
 21 126 l 1,1,-1
 186 126 l 1,2,-1
 186 0 l 1,3,-1
 21 0 l 1,0,-1
21 158 m 1,4,-1
 21 507 l 1,5,-1
 186 507 l 1,6,-1
 186 158 l 1,7,-1
 21 158 l 1,4,-1
EndSplineSet
EndChar

StartChar: quotedbl
Encoding: 34 34 5
Width: 412
Flags: W
LayerCount: 2
Fore
SplineSet
166 417 m 1,0,-1
 41 417 l 1,1,-1
 21 607 l 1,2,-1
 186 607 l 1,3,-1
 166 417 l 1,0,-1
371 417 m 1,4,-1
 246 417 l 1,5,-1
 226 607 l 1,6,-1
 391 607 l 1,7,-1
 371 417 l 1,4,-1
EndSplineSet
EndChar

StartChar: numbersign
Encoding: 35 35 6
Width: 512
Flags: W
LayerCount: 2
Fore
SplineSet
299 416 m 1,0,-1
 194 416 l 1,1,-1
 194 311 l 1,2,-1
 299 311 l 1,3,-1
 299 416 l 1,0,-1
394 216 m 1,4,-1
 394 133 l 1,5,-1
 299 133 l 1,6,-1
 299 216 l 1,7,-1
 194 216 l 1,8,-1
 194 133 l 1,9,-1
 99 133 l 1,10,-1
 99 216 l 1,11,-1
 15 216 l 1,12,-1
 15 311 l 1,13,-1
 99 311 l 1,14,-1
 99 416 l 1,15,-1
 15 416 l 1,16,-1
 15 511 l 1,17,-1
 99 511 l 1,18,-1
 99 603 l 1,19,-1
 194 603 l 1,20,-1
 194 511 l 1,21,-1
 299 511 l 1,22,-1
 299 603 l 1,23,-1
 394 603 l 1,24,-1
 394 511 l 1,25,-1
 485 511 l 1,26,-1
 485 416 l 1,27,-1
 394 416 l 1,28,-1
 394 311 l 1,29,-1
 485 311 l 1,30,-1
 485 216 l 1,31,-1
 394 216 l 1,4,-1
EndSplineSet
EndChar

StartChar: dollar
Encoding: 36 36 7
Width: 412
Flags: W
LayerCount: 2
Fore
SplineSet
156 32 m 1,0,-1
 21 32 l 1,1,-1
 21 158 l 1,2,-1
 226 158 l 1,3,-1
 226 190 l 1,4,-1
 103 190 l 2,5,6
 21 190 21 190 21 254 c 2,7,-1
 21 412 l 2,8,9
 21 476 21 476 103 476 c 2,10,-1
 156 476 l 1,11,-1
 156 507 l 1,12,-1
 254 507 l 1,13,-1
 254 476 l 1,14,-1
 391 476 l 1,15,-1
 391 349 l 1,16,-1
 186 349 l 1,17,-1
 186 317 l 1,18,-1
 309 317 l 2,19,20
 391 317 391 317 391 254 c 2,21,-1
 391 95 l 2,22,23
 391 32 391 32 309 32 c 2,24,-1
 254 32 l 1,25,-1
 254 0 l 1,26,-1
 156 0 l 1,27,-1
 156 32 l 1,0,-1
EndSplineSet
EndChar

StartChar: percent
Encoding: 37 37 8
Width: 489
Flags: W
LayerCount: 2
Fore
SplineSet
300 0 m 1,0,-1
 300 126 l 1,1,-1
 465 126 l 1,2,-1
 465 0 l 1,3,-1
 300 0 l 1,0,-1
225 0 m 1,4,-1
 60 0 l 1,5,-1
 265 507 l 1,6,-1
 430 507 l 1,7,-1
 225 0 l 1,4,-1
27 381 m 1,8,-1
 27 507 l 1,9,-1
 192 507 l 1,10,-1
 192 381 l 1,11,-1
 27 381 l 1,8,-1
EndSplineSet
EndChar

StartChar: ampersand
Encoding: 38 38 9
Width: 440
Flags: W
LayerCount: 2
Fore
SplineSet
226 190 m 1,0,-1
 186 190 l 1,1,-1
 186 126 l 1,2,-1
 226 126 l 1,3,-1
 226 190 l 1,0,-1
226 380 m 1,4,-1
 186 380 l 1,5,-1
 186 317 l 1,6,-1
 226 317 l 1,7,-1
 226 380 l 1,4,-1
103 0 m 2,8,9
 59 0 59 0 43 10 c 0,10,11
 21 23 21 23 21 63 c 2,12,-1
 21 222 l 2,13,14
 21 246 21 246 62 254 c 1,15,16
 21 259 21 259 21 285 c 2,17,-1
 21 443 l 2,18,19
 21 471 21 471 49 490 c 0,20,21
 75 507 75 507 103 507 c 2,22,-1
 309 507 l 2,23,24
 337 507 337 507 363 490 c 0,25,26
 391 471 391 471 391 443 c 2,27,-1
 391 317 l 1,28,-1
 433 317 l 1,29,-1
 433 190 l 1,30,-1
 391 190 l 1,31,-1
 391 126 l 1,32,-1
 433 126 l 1,33,-1
 433 0 l 1,34,-1
 103 0 l 2,8,9
EndSplineSet
EndChar

StartChar: quotesingle
Encoding: 39 39 10
Width: 206
Flags: W
LayerCount: 2
Fore
SplineSet
166 417 m 1,0,-1
 41 417 l 1,1,-1
 21 607 l 1,2,-1
 186 607 l 1,3,-1
 166 417 l 1,0,-1
EndSplineSet
EndChar

StartChar: parenleft
Encoding: 40 40 11
Width: 265
Flags: W
LayerCount: 2
Fore
SplineSet
103 -157 m 2,0,1
 76 -157 76 -157 50 -140 c 0,2,3
 21 -120 21 -120 21 -94 c 2,4,-1
 21 600 l 2,5,6
 21 626 21 626 50 646 c 0,7,8
 75 664 75 664 103 664 c 2,9,-1
 241 664 l 1,10,-1
 241 537 l 1,11,-1
 186 537 l 1,12,-1
 186 -31 l 1,13,-1
 241 -31 l 1,14,-1
 241 -157 l 1,15,-1
 103 -157 l 2,0,1
EndSplineSet
EndChar

StartChar: parenright
Encoding: 41 41 12
Width: 265
Flags: W
LayerCount: 2
Fore
SplineSet
242 -94 m 2,0,1
 242 -121 242 -121 214 -139 c 0,2,3
 187 -157 187 -157 160 -157 c 2,4,-1
 22 -157 l 1,5,-1
 22 -31 l 1,6,-1
 77 -31 l 1,7,-1
 77 537 l 1,8,-1
 22 537 l 1,9,-1
 22 664 l 1,10,-1
 160 664 l 2,11,12
 189 664 189 664 214 645 c 0,13,14
 242 627 242 627 242 600 c 2,15,-1
 242 -94 l 2,0,1
EndSplineSet
EndChar

StartChar: asterisk
Encoding: 42 42 13
Width: 512
Flags: W
LayerCount: 2
Fore
SplineSet
484 191 m 0,0,1
 484 170 484 170 455 138 c 0,2,3
 427 107 427 107 406 107 c 0,4,5
 382 107 382 107 345 156 c 0,6,7
 307 206 307 206 294 206 c 0,8,9
 270 206 270 206 270 186 c 0,10,11
 270 175 270 175 302 134 c 256,12,13
 334 93 334 93 334 80 c 0,14,15
 334 50 334 50 246 50 c 0,16,17
 168 50 168 50 168 81 c 0,18,19
 168 95 168 95 195 133 c 0,20,21
 223 170 223 170 223 185 c 0,22,23
 223 206 223 206 200 206 c 0,24,25
 187 206 187 206 151 155 c 0,26,27
 115 105 115 105 90 105 c 0,28,29
 68 105 68 105 39 137 c 0,30,31
 10 172 10 172 10 192 c 0,32,33
 10 213 10 213 59 216 c 1,34,35
 56 215 56 215 68 215 c 2,36,-1
 125 215 l 2,37,38
 185 215 185 215 185 241 c 0,39,40
 185 262 185 262 138 262 c 0,41,42
 132 262 132 262 122 261.5 c 128,-1,43
 112 261 112 261 101.5 260 c 128,-1,44
 91 259 91 259 81.5 258.5 c 128,-1,45
 72 258 72 258 66 258 c 0,46,47
 11 258 11 258 11 286 c 0,48,49
 11 308 11 308 37 343 c 0,50,51
 64 378 64 378 87 378 c 256,52,53
 110 378 110 378 148 327 c 0,54,55
 185 276 185 276 200 276 c 0,56,57
 222 276 222 276 222 295 c 0,58,59
 222 305 222 305 190 346 c 0,60,61
 159 386 159 386 159 401 c 0,62,63
 159 430 159 430 249 430 c 0,64,65
 333 430 333 430 333 402 c 0,66,67
 333 388 333 388 301 347 c 0,68,69
 270 310 270 310 270 295 c 0,70,71
 270 276 270 276 294 276 c 0,72,73
 309 276 309 276 347 326 c 0,74,75
 384 377 384 377 408 377 c 0,76,77
 430 377 430 377 456 342 c 256,78,79
 482 307 482 307 482 285 c 0,80,81
 482 260 482 260 438 260 c 0,82,83
 431 260 431 260 420.5 260.5 c 128,-1,84
 410 261 410 261 396 262 c 0,85,86
 367 265 367 265 354 265 c 0,87,88
 309 265 309 265 309 241 c 0,89,90
 309 213 309 213 369 213 c 2,91,-1
 381 213 l 1,92,-1
 389 213 l 2,93,94
 396 213 396 213 399 214 c 2,95,-1
 430 214 l 2,96,97
 484 214 484 214 484 191 c 0,0,1
EndSplineSet
EndChar

StartChar: plus
Encoding: 43 43 14
Width: 370
Flags: W
LayerCount: 2
Fore
SplineSet
268 190 m 1,0,-1
 268 126 l 1,1,-1
 103 126 l 1,2,-1
 103 190 l 1,3,-1
 21 190 l 1,4,-1
 21 317 l 1,5,-1
 103 317 l 1,6,-1
 103 380 l 1,7,-1
 268 380 l 1,8,-1
 268 317 l 1,9,-1
 350 317 l 1,10,-1
 350 190 l 1,11,-1
 268 190 l 1,0,-1
EndSplineSet
EndChar

StartChar: comma
Encoding: 44 44 15
Width: 206
Flags: W
LayerCount: 2
Fore
SplineSet
186 -31 m 2,0,1
 186 -57 186 -57 158 -75 c 0,2,3
 133 -94 133 -94 103 -94 c 2,4,-1
 21 -94 l 1,5,-1
 21 -31 l 1,6,-1
 103 -31 l 1,7,-1
 103 0 l 1,8,-1
 21 0 l 1,9,-1
 21 126 l 1,10,-1
 186 126 l 1,11,-1
 186 -31 l 2,0,1
EndSplineSet
EndChar

StartChar: hyphen
Encoding: 45 45 16
Width: 247
Flags: W
LayerCount: 2
Fore
SplineSet
21 190 m 1,0,-1
 21 317 l 1,1,-1
 226 317 l 1,2,-1
 226 190 l 1,3,-1
 21 190 l 1,0,-1
EndSplineSet
EndChar

StartChar: period
Encoding: 46 46 17
Width: 206
Flags: W
LayerCount: 2
Fore
SplineSet
21 0 m 1,0,-1
 21 126 l 1,1,-1
 186 126 l 1,2,-1
 186 0 l 1,3,-1
 21 0 l 1,0,-1
EndSplineSet
EndChar

StartChar: slash
Encoding: 47 47 18
Width: 305
Flags: W
LayerCount: 2
Fore
SplineSet
86 0 m 1,0,-1
 21 0 l 1,1,-1
 226 507 l 1,2,-1
 291 507 l 1,3,-1
 86 0 l 1,0,-1
EndSplineSet
EndChar

StartChar: zero
Encoding: 48 48 19
Width: 412
Flags: W
LayerCount: 2
Fore
SplineSet
226 380 m 1,0,-1
 186 380 l 1,1,-1
 186 126 l 1,2,-1
 226 126 l 1,3,-1
 226 380 l 1,0,-1
391 63 m 2,4,5
 391 0 391 0 309 0 c 2,6,-1
 103 0 l 2,7,8
 21 0 21 0 21 63 c 2,9,-1
 21 443 l 2,10,11
 21 507 21 507 103 507 c 2,12,-1
 309 507 l 2,13,14
 391 507 391 507 391 443 c 2,15,-1
 391 63 l 2,4,5
EndSplineSet
EndChar

StartChar: one
Encoding: 49 49 20
Width: 206
Flags: W
LayerCount: 2
Fore
SplineSet
21 0 m 1,0,-1
 21 507 l 1,1,-1
 186 507 l 1,2,-1
 186 0 l 1,3,-1
 21 0 l 1,0,-1
EndSplineSet
EndChar

StartChar: two
Encoding: 50 50 21
Width: 412
Flags: W
LayerCount: 2
Fore
SplineSet
21 0 m 1,0,-1
 21 254 l 2,1,2
 21 317 21 317 103 317 c 2,3,-1
 226 317 l 1,4,-1
 226 380 l 1,5,-1
 186 380 l 1,6,-1
 186 349 l 1,7,-1
 21 349 l 1,8,-1
 21 443 l 2,9,10
 21 507 21 507 103 507 c 2,11,-1
 309 507 l 2,12,13
 391 507 391 507 391 443 c 2,14,-1
 391 254 l 2,15,16
 391 190 391 190 309 190 c 2,17,-1
 186 190 l 1,18,-1
 186 126 l 1,19,-1
 226 126 l 1,20,-1
 226 158 l 1,21,-1
 391 158 l 1,22,-1
 391 0 l 1,23,-1
 21 0 l 1,0,-1
EndSplineSet
EndChar

StartChar: three
Encoding: 51 51 22
Width: 412
Flags: W
LayerCount: 2
Fore
SplineSet
391 63 m 2,0,1
 391 0 391 0 309 0 c 2,2,-1
 103 0 l 2,3,4
 21 0 21 0 21 63 c 2,5,-1
 21 158 l 1,6,-1
 186 158 l 1,7,-1
 186 126 l 1,8,-1
 226 126 l 1,9,-1
 226 190 l 1,10,-1
 121 190 l 1,11,-1
 121 317 l 1,12,-1
 226 317 l 1,13,-1
 226 380 l 1,14,-1
 186 380 l 1,15,-1
 186 349 l 1,16,-1
 21 349 l 1,17,-1
 21 443 l 2,18,19
 21 507 21 507 103 507 c 2,20,-1
 309 507 l 2,21,22
 391 507 391 507 391 443 c 2,23,-1
 391 295 l 2,24,25
 391 265 391 265 350 254 c 1,26,27
 391 243 391 243 391 212 c 2,28,-1
 391 63 l 2,0,1
EndSplineSet
EndChar

StartChar: four
Encoding: 52 52 23
Width: 438
Flags: W
LayerCount: 2
Fore
SplineSet
391 141 m 1,0,-1
 391 0 l 1,1,-1
 226 0 l 1,2,-1
 226 141 l 1,3,-1
 21 141 l 1,4,-1
 21 507 l 1,5,-1
 186 507 l 1,6,-1
 186 268 l 1,7,-1
 226 268 l 1,8,-1
 226 507 l 1,9,-1
 391 507 l 1,10,-1
 391 268 l 1,11,-1
 433 268 l 1,12,-1
 433 141 l 1,13,-1
 391 141 l 1,0,-1
EndSplineSet
EndChar

StartChar: five
Encoding: 53 53 24
Width: 412
Flags: W
LayerCount: 2
Fore
SplineSet
391 63 m 2,0,1
 391 0 391 0 309 0 c 2,2,-1
 103 0 l 2,3,4
 21 0 21 0 21 63 c 2,5,-1
 21 158 l 1,6,-1
 186 158 l 1,7,-1
 186 126 l 1,8,-1
 226 126 l 1,9,-1
 226 190 l 1,10,-1
 21 190 l 1,11,-1
 21 507 l 1,12,-1
 391 507 l 1,13,-1
 391 349 l 1,14,-1
 226 349 l 1,15,-1
 226 380 l 1,16,-1
 186 380 l 1,17,-1
 186 317 l 1,18,-1
 309 317 l 2,19,20
 391 317 391 317 391 254 c 2,21,-1
 391 63 l 2,0,1
EndSplineSet
EndChar

StartChar: six
Encoding: 54 54 25
Width: 412
Flags: W
LayerCount: 2
Fore
SplineSet
226 190 m 1,0,-1
 186 190 l 1,1,-1
 186 126 l 1,2,-1
 226 126 l 1,3,-1
 226 190 l 1,0,-1
391 63 m 2,4,5
 391 0 391 0 309 0 c 2,6,-1
 103 0 l 2,7,8
 21 0 21 0 21 63 c 2,9,-1
 21 443 l 2,10,11
 21 507 21 507 103 507 c 2,12,-1
 309 507 l 2,13,14
 391 507 391 507 391 443 c 2,15,-1
 391 349 l 1,16,-1
 226 349 l 1,17,-1
 226 380 l 1,18,-1
 186 380 l 1,19,-1
 186 317 l 1,20,-1
 309 317 l 2,21,22
 391 317 391 317 391 254 c 2,23,-1
 391 63 l 2,4,5
EndSplineSet
EndChar

StartChar: seven
Encoding: 55 55 26
Width: 412
Flags: W
LayerCount: 2
Fore
SplineSet
186 0 m 1,0,-1
 21 0 l 1,1,-1
 226 380 l 1,2,-1
 21 380 l 1,3,-1
 21 507 l 1,4,-1
 391 507 l 1,5,-1
 391 380 l 1,6,-1
 186 0 l 1,0,-1
EndSplineSet
EndChar

StartChar: eight
Encoding: 56 56 27
Width: 412
Flags: W
LayerCount: 2
Fore
SplineSet
226 190 m 1,0,-1
 186 190 l 1,1,-1
 186 126 l 1,2,-1
 226 126 l 1,3,-1
 226 190 l 1,0,-1
226 380 m 1,4,-1
 186 380 l 1,5,-1
 186 317 l 1,6,-1
 226 317 l 1,7,-1
 226 380 l 1,4,-1
391 63 m 2,8,9
 391 36 391 36 364 18 c 256,10,11
 337 0 337 0 309 0 c 2,12,-1
 103 0 l 2,13,14
 75 0 75 0 48 18 c 256,15,16
 21 36 21 36 21 63 c 2,17,-1
 21 212 l 2,18,19
 21 239 21 239 62 254 c 1,20,21
 21 269 21 269 21 305 c 2,22,-1
 21 443 l 2,23,24
 21 471 21 471 49 490 c 0,25,26
 75 507 75 507 103 507 c 2,27,-1
 309 507 l 2,28,29
 337 507 337 507 363 490 c 0,30,31
 391 471 391 471 391 443 c 2,32,-1
 391 305 l 2,33,34
 391 269 391 269 350 254 c 1,35,36
 391 237 391 237 391 212 c 2,37,-1
 391 63 l 2,8,9
EndSplineSet
EndChar

StartChar: nine
Encoding: 57 57 28
Width: 412
Flags: W
LayerCount: 2
Fore
SplineSet
226 380 m 1,0,-1
 186 380 l 1,1,-1
 186 317 l 1,2,-1
 226 317 l 1,3,-1
 226 380 l 1,0,-1
391 63 m 2,4,5
 391 36 391 36 364 18 c 256,6,7
 337 0 337 0 309 0 c 2,8,-1
 103 0 l 2,9,10
 21 0 21 0 21 63 c 2,11,-1
 21 158 l 1,12,-1
 186 158 l 1,13,-1
 186 126 l 1,14,-1
 226 126 l 1,15,-1
 226 190 l 1,16,-1
 103 190 l 2,17,18
 21 190 21 190 21 254 c 2,19,-1
 21 443 l 2,20,21
 21 507 21 507 103 507 c 2,22,-1
 309 507 l 2,23,24
 391 507 391 507 391 443 c 2,25,-1
 391 63 l 2,4,5
EndSplineSet
EndChar

StartChar: colon
Encoding: 58 58 29
Width: 206
Flags: W
LayerCount: 2
Fore
SplineSet
21 0 m 1,0,-1
 21 126 l 1,1,-1
 186 126 l 1,2,-1
 186 0 l 1,3,-1
 21 0 l 1,0,-1
21 158 m 1,4,-1
 21 285 l 1,5,-1
 186 285 l 1,6,-1
 186 158 l 1,7,-1
 21 158 l 1,4,-1
EndSplineSet
EndChar

StartChar: semicolon
Encoding: 59 59 30
Width: 206
Flags: W
LayerCount: 2
Fore
SplineSet
186 -31 m 2,0,1
 186 -57 186 -57 158 -75 c 0,2,3
 133 -94 133 -94 103 -94 c 2,4,-1
 21 -94 l 1,5,-1
 21 -31 l 1,6,-1
 103 -31 l 1,7,-1
 103 0 l 1,8,-1
 21 0 l 1,9,-1
 21 126 l 1,10,-1
 186 126 l 1,11,-1
 186 -31 l 2,0,1
21 158 m 1,12,-1
 21 285 l 1,13,-1
 186 285 l 1,14,-1
 186 158 l 1,15,-1
 21 158 l 1,12,-1
EndSplineSet
EndChar

StartChar: less
Encoding: 60 60 31
Width: 399
Flags: W
LayerCount: 2
Fore
SplineSet
211 142 m 1,0,-1
 27 326 l 1,1,-1
 211 511 l 1,2,-1
 369 511 l 1,3,-1
 184 326 l 1,4,-1
 369 142 l 1,5,-1
 211 142 l 1,0,-1
EndSplineSet
EndChar

StartChar: equal
Encoding: 61 61 32
Width: 247
Flags: W
LayerCount: 2
Fore
SplineSet
21 125 m 1,0,-1
 21 212 l 1,1,-1
 226 212 l 1,2,-1
 226 125 l 1,3,-1
 21 125 l 1,0,-1
21 264 m 1,4,-1
 21 350 l 1,5,-1
 226 350 l 1,6,-1
 226 264 l 1,7,-1
 21 264 l 1,4,-1
EndSplineSet
EndChar

StartChar: greater
Encoding: 62 62 33
Width: 399
Flags: W
LayerCount: 2
Fore
SplineSet
187 142 m 1,0,-1
 29 142 l 1,1,-1
 214 326 l 1,2,-1
 29 511 l 1,3,-1
 187 511 l 1,4,-1
 372 326 l 1,5,-1
 187 142 l 1,0,-1
EndSplineSet
EndChar

StartChar: question
Encoding: 63 63 34
Width: 412
Flags: W
LayerCount: 2
Fore
SplineSet
21 0 m 1,0,-1
 21 126 l 1,1,-1
 186 126 l 1,2,-1
 186 0 l 1,3,-1
 21 0 l 1,0,-1
391 254 m 2,4,5
 391 190 391 190 309 190 c 2,6,-1
 186 190 l 1,7,-1
 186 158 l 1,8,-1
 21 158 l 1,9,-1
 21 254 l 2,10,11
 21 317 21 317 103 317 c 2,12,-1
 226 317 l 1,13,-1
 226 380 l 1,14,-1
 186 380 l 1,15,-1
 186 349 l 1,16,-1
 21 349 l 1,17,-1
 21 443 l 2,18,19
 21 507 21 507 103 507 c 2,20,-1
 309 507 l 2,21,22
 391 507 391 507 391 443 c 2,23,-1
 391 254 l 2,4,5
EndSplineSet
EndChar

StartChar: at
Encoding: 64 64 35
Width: 452
Flags: W
LayerCount: 2
Fore
SplineSet
236 237 m 1,0,-1
 213 237 l 1,1,-1
 213 201 l 1,2,-1
 236 201 l 1,3,-1
 236 237 l 1,0,-1
166 128 m 2,4,5
 148 128 148 128 135 138 c 0,6,7
 118 149 118 149 118 164 c 2,8,-1
 118 274 l 2,9,10
 118 289 118 289 134 299.5 c 128,-1,11
 150 310 150 310 166 310 c 2,12,-1
 236 310 l 1,13,-1
 236 346 l 1,14,-1
 213 346 l 1,15,-1
 213 328 l 1,16,-1
 118 328 l 1,17,-1
 118 382 l 2,18,19
 118 398 118 398 135 409 c 0,20,21
 148 419 148 419 166 419 c 2,22,-1
 284 419 l 2,23,24
 300 419 300 419 315.5 408.5 c 128,-1,25
 331 398 331 398 331 382 c 2,26,-1
 331 128 l 1,27,-1
 166 128 l 2,4,5
366 470 m 1,28,-1
 86 470 l 1,29,-1
 86 76 l 1,30,-1
 366 76 l 1,31,-1
 366 470 l 1,28,-1
431 63 m 2,32,33
 431 36 431 36 404 18 c 256,34,35
 377 0 377 0 349 0 c 2,36,-1
 103 0 l 2,37,38
 75 0 75 0 48 18 c 256,39,40
 21 36 21 36 21 63 c 2,41,-1
 21 483 l 2,42,43
 21 511 21 511 49 530 c 0,44,45
 75 547 75 547 103 547 c 2,46,-1
 349 547 l 2,47,48
 377 547 377 547 403 530 c 0,49,50
 431 511 431 511 431 483 c 2,51,-1
 431 63 l 2,32,33
EndSplineSet
EndChar

StartChar: A
Encoding: 65 65 36
Width: 412
Flags: W
LayerCount: 2
Fore
SplineSet
226 380 m 1,0,-1
 186 380 l 1,1,-1
 186 317 l 1,2,-1
 226 317 l 1,3,-1
 226 380 l 1,0,-1
309 -157 m 2,4,5
 281 -157 281 -157 255 -140 c 0,6,7
 226 -120 226 -120 226 -94 c 2,8,-1
 226 190 l 1,9,-1
 186 190 l 1,10,-1
 186 0 l 1,11,-1
 21 0 l 1,12,-1
 21 443 l 2,13,14
 21 507 21 507 103 507 c 2,15,-1
 309 507 l 2,16,17
 391 507 391 507 391 443 c 2,18,-1
 391 -31 l 1,19,-1
 597 -31 l 1,20,-1
 597 -157 l 1,21,-1
 309 -157 l 2,4,5
EndSplineSet
EndChar

StartChar: B
Encoding: 66 66 37
Width: 412
Flags: W
LayerCount: 2
Fore
SplineSet
226 190 m 1,0,-1
 186 190 l 1,1,-1
 186 126 l 1,2,-1
 226 126 l 1,3,-1
 226 190 l 1,0,-1
226 380 m 1,4,-1
 186 380 l 1,5,-1
 186 317 l 1,6,-1
 226 317 l 1,7,-1
 226 380 l 1,4,-1
391 63 m 2,8,9
 391 0 391 0 309 0 c 2,10,-1
 21 0 l 1,11,-1
 21 507 l 1,12,-1
 309 507 l 2,13,14
 391 507 391 507 391 443 c 2,15,-1
 391 295 l 2,16,17
 391 259 391 259 350 254 c 1,18,19
 391 248 391 248 391 212 c 2,20,-1
 391 63 l 2,8,9
EndSplineSet
EndChar

StartChar: C
Encoding: 67 67 38
Width: 412
Flags: W
LayerCount: 2
Fore
SplineSet
391 63 m 2,0,1
 391 0 391 0 309 0 c 2,2,-1
 103 0 l 2,3,4
 21 0 21 0 21 63 c 2,5,-1
 21 443 l 2,6,7
 21 507 21 507 103 507 c 2,8,-1
 309 507 l 2,9,10
 391 507 391 507 391 443 c 2,11,-1
 391 293 l 1,12,-1
 226 293 l 1,13,-1
 226 380 l 1,14,-1
 186 380 l 1,15,-1
 186 126 l 1,16,-1
 226 126 l 1,17,-1
 226 246 l 1,18,-1
 391 246 l 1,19,-1
 391 63 l 2,0,1
EndSplineSet
EndChar

StartChar: D
Encoding: 68 68 39
Width: 412
Flags: W
LayerCount: 2
Fore
SplineSet
226 380 m 1,0,-1
 186 380 l 1,1,-1
 186 126 l 1,2,-1
 226 126 l 1,3,-1
 226 380 l 1,0,-1
391 63 m 2,4,5
 391 0 391 0 309 0 c 2,6,-1
 21 0 l 1,7,-1
 21 507 l 1,8,-1
 309 507 l 2,9,10
 391 507 391 507 391 443 c 2,11,-1
 391 63 l 2,4,5
EndSplineSet
EndChar

StartChar: E
Encoding: 69 69 40
Width: 325
Flags: W
LayerCount: 2
Fore
SplineSet
186 317 m 1,0,-1
 301 317 l 1,1,-1
 301 190 l 1,2,-1
 186 190 l 1,3,-1
 186 126 l 1,4,-1
 301 126 l 1,5,-1
 301 0 l 1,6,-1
 21 0 l 1,7,-1
 21 507 l 1,8,-1
 301 507 l 1,9,-1
 301 380 l 1,10,-1
 186 380 l 1,11,-1
 186 317 l 1,0,-1
EndSplineSet
EndChar

StartChar: F
Encoding: 70 70 41
Width: 362
Flags: W
LayerCount: 2
Fore
SplineSet
186 222 m 1,0,-1
 186 0 l 1,1,-1
 21 0 l 1,2,-1
 21 507 l 1,3,-1
 341 507 l 1,4,-1
 341 380 l 1,5,-1
 186 380 l 1,6,-1
 186 349 l 1,7,-1
 341 349 l 1,8,-1
 341 222 l 1,9,-1
 186 222 l 1,0,-1
EndSplineSet
EndChar

StartChar: G
Encoding: 71 71 42
Width: 412
Flags: W
LayerCount: 2
Fore
SplineSet
391 0 m 1,0,-1
 103 0 l 2,1,2
 21 0 21 0 21 63 c 2,3,-1
 21 443 l 2,4,5
 21 507 21 507 103 507 c 2,6,-1
 309 507 l 2,7,8
 391 507 391 507 391 443 c 2,9,-1
 391 357 l 1,10,-1
 226 357 l 1,11,-1
 226 380 l 1,12,-1
 186 380 l 1,13,-1
 186 126 l 1,14,-1
 226 126 l 1,15,-1
 226 317 l 1,16,-1
 391 317 l 1,17,-1
 391 0 l 1,0,-1
EndSplineSet
EndChar

StartChar: H
Encoding: 72 72 43
Width: 412
Flags: W
LayerCount: 2
Fore
SplineSet
309 -157 m 2,0,1
 281 -157 281 -157 255 -140 c 0,2,3
 226 -120 226 -120 226 -94 c 2,4,-1
 226 190 l 1,5,-1
 186 190 l 1,6,-1
 186 0 l 1,7,-1
 21 0 l 1,8,-1
 21 507 l 1,9,-1
 186 507 l 1,10,-1
 186 317 l 1,11,-1
 226 317 l 1,12,-1
 226 507 l 1,13,-1
 391 507 l 1,14,-1
 391 -31 l 1,15,-1
 597 -31 l 1,16,-1
 597 -157 l 1,17,-1
 309 -157 l 2,0,1
EndSplineSet
EndChar

StartChar: I
Encoding: 73 73 44
Width: 206
Flags: W
LayerCount: 2
Fore
SplineSet
21 0 m 1,0,-1
 21 507 l 1,1,-1
 186 507 l 1,2,-1
 186 0 l 1,3,-1
 21 0 l 1,0,-1
EndSplineSet
EndChar

StartChar: J
Encoding: 74 74 45
Width: 412
Flags: W
LayerCount: 2
Fore
SplineSet
391 63 m 2,0,1
 391 0 391 0 309 0 c 2,2,-1
 103 0 l 2,3,4
 21 0 21 0 21 63 c 2,5,-1
 21 254 l 1,6,-1
 186 254 l 1,7,-1
 186 126 l 1,8,-1
 226 126 l 1,9,-1
 226 507 l 1,10,-1
 391 507 l 1,11,-1
 391 63 l 2,0,1
EndSplineSet
EndChar

StartChar: K
Encoding: 75 75 46
Width: 412
Flags: W
LayerCount: 2
Fore
SplineSet
234 0 m 1,0,-1
 180 78 l 1,1,-1
 180 0 l 1,2,-1
 21 0 l 1,3,-1
 21 507 l 1,4,-1
 180 507 l 1,5,-1
 180 429 l 1,6,-1
 234 507 l 1,7,-1
 408 507 l 1,8,-1
 244 254 l 1,9,-1
 408 0 l 1,10,-1
 234 0 l 1,0,-1
EndSplineSet
EndChar

StartChar: L
Encoding: 76 76 47
Width: 206
Flags: W
LayerCount: 2
Fore
SplineSet
21 -157 m 1,0,-1
 21 507 l 1,1,-1
 186 507 l 1,2,-1
 186 -31 l 1,3,-1
 433 -31 l 1,4,-1
 433 -157 l 1,5,-1
 21 -157 l 1,0,-1
EndSplineSet
EndChar

StartChar: M
Encoding: 77 77 48
Width: 618
Flags: W
LayerCount: 2
Fore
SplineSet
516 -157 m 2,0,1
 488 -157 488 -157 462 -140 c 0,2,3
 433 -120 433 -120 433 -94 c 2,4,-1
 433 380 l 1,5,-1
 391 380 l 1,6,-1
 391 0 l 1,7,-1
 226 0 l 1,8,-1
 226 380 l 1,9,-1
 186 380 l 1,10,-1
 186 0 l 1,11,-1
 21 0 l 1,12,-1
 21 507 l 1,13,-1
 186 507 l 1,14,-1
 186 475 l 1,15,16
 215 507 215 507 309 507 c 0,17,18
 357 507 357 507 383 469 c 1,19,20
 406 495 406 495 443 503 c 0,21,22
 458 507 458 507 514 507 c 0,23,24
 542 507 542 507 568 490 c 0,25,26
 597 470 597 470 597 443 c 2,27,-1
 597 -31 l 1,28,-1
 804 -31 l 1,29,-1
 804 -157 l 1,30,-1
 516 -157 l 2,0,1
EndSplineSet
EndChar

StartChar: N
Encoding: 78 78 49
Width: 412
Flags: W
LayerCount: 2
Fore
SplineSet
310 -157 m 2,0,1
 282 -157 282 -157 256 -140 c 0,2,3
 227 -120 227 -120 227 -94 c 2,4,-1
 227 0 l 1,5,-1
 226 0 l 1,6,-1
 226 380 l 1,7,-1
 186 380 l 1,8,-1
 186 0 l 1,9,-1
 21 0 l 1,10,-1
 21 507 l 1,11,-1
 186 507 l 1,12,-1
 186 475 l 1,13,14
 227 507 227 507 309 507 c 256,15,16
 391 507 391 507 391 443 c 2,17,-1
 391 -31 l 1,18,-1
 598 -31 l 1,19,-1
 598 -157 l 1,20,-1
 310 -157 l 2,0,1
EndSplineSet
EndChar

StartChar: O
Encoding: 79 79 50
Width: 412
Flags: W
LayerCount: 2
Fore
SplineSet
226 380 m 1,0,-1
 186 380 l 1,1,-1
 186 126 l 1,2,-1
 226 126 l 1,3,-1
 226 380 l 1,0,-1
391 63 m 2,4,5
 391 0 391 0 309 0 c 2,6,-1
 103 0 l 2,7,8
 21 0 21 0 21 63 c 2,9,-1
 21 443 l 2,10,11
 21 507 21 507 103 507 c 2,12,-1
 309 507 l 2,13,14
 391 507 391 507 391 443 c 2,15,-1
 391 63 l 2,4,5
EndSplineSet
EndChar

StartChar: P
Encoding: 80 80 51
Width: 412
Flags: W
LayerCount: 2
Fore
SplineSet
226 380 m 1,0,-1
 186 380 l 1,1,-1
 186 317 l 1,2,-1
 226 317 l 1,3,-1
 226 380 l 1,0,-1
391 254 m 2,4,5
 391 190 391 190 309 190 c 2,6,-1
 186 190 l 1,7,-1
 186 0 l 1,8,-1
 21 0 l 1,9,-1
 21 507 l 1,10,-1
 309 507 l 2,11,12
 391 507 391 507 391 443 c 2,13,-1
 391 254 l 2,4,5
EndSplineSet
EndChar

StartChar: Q
Encoding: 81 81 52
Width: 412
Flags: W
LayerCount: 2
Fore
SplineSet
226 380 m 1,0,-1
 186 380 l 1,1,-1
 186 126 l 1,2,-1
 226 126 l 1,3,-1
 226 380 l 1,0,-1
309 -157 m 2,4,5
 226 -157 226 -157 226 -94 c 2,6,-1
 226 0 l 1,7,-1
 103 0 l 2,8,9
 21 0 21 0 21 63 c 2,10,-1
 21 443 l 2,11,12
 21 507 21 507 103 507 c 2,13,-1
 309 507 l 2,14,15
 391 507 391 507 391 443 c 2,16,-1
 391 -31 l 1,17,-1
 597 -31 l 1,18,-1
 597 -157 l 1,19,-1
 309 -157 l 2,4,5
EndSplineSet
EndChar

StartChar: R
Encoding: 82 82 53
Width: 412
Flags: W
LayerCount: 2
Fore
SplineSet
226 380 m 1,0,-1
 186 380 l 1,1,-1
 186 317 l 1,2,-1
 226 317 l 1,3,-1
 226 380 l 1,0,-1
309 -157 m 2,4,5
 281 -157 281 -157 255 -140 c 0,6,7
 226 -120 226 -120 226 -94 c 2,8,-1
 226 190 l 1,9,-1
 186 190 l 1,10,-1
 186 0 l 1,11,-1
 21 0 l 1,12,-1
 21 507 l 1,13,-1
 309 507 l 2,14,15
 391 507 391 507 391 443 c 2,16,-1
 391 307 l 2,17,18
 391 269 391 269 350 254 c 1,19,20
 391 239 391 239 391 201 c 2,21,-1
 391 -31 l 1,22,-1
 597 -31 l 1,23,-1
 597 -157 l 1,24,-1
 309 -157 l 2,4,5
EndSplineSet
EndChar

StartChar: S
Encoding: 83 83 54
Width: 412
Flags: W
LayerCount: 2
Fore
SplineSet
391 63 m 2,0,1
 391 0 391 0 309 0 c 2,2,-1
 103 0 l 2,3,4
 21 0 21 0 21 63 c 2,5,-1
 21 158 l 1,6,-1
 186 158 l 1,7,-1
 186 126 l 1,8,-1
 226 126 l 1,9,-1
 226 190 l 1,10,-1
 103 190 l 2,11,12
 21 190 21 190 21 254 c 2,13,-1
 21 443 l 2,14,15
 21 507 21 507 103 507 c 2,16,-1
 309 507 l 2,17,18
 391 507 391 507 391 443 c 2,19,-1
 391 349 l 1,20,-1
 226 349 l 1,21,-1
 226 380 l 1,22,-1
 186 380 l 1,23,-1
 186 317 l 1,24,-1
 309 317 l 2,25,26
 391 317 391 317 391 254 c 2,27,-1
 391 63 l 2,0,1
EndSplineSet
EndChar

StartChar: T
Encoding: 84 84 55
Width: 439
Flags: W
LayerCount: 2
Fore
SplineSet
418 63 m 2,0,1
 418 0 418 0 336 0 c 2,2,-1
 130 0 l 2,3,4
 48 0 48 0 48 63 c 2,5,-1
 48 349 l 1,6,-1
 7 349 l 1,7,-1
 7 475 l 1,8,-1
 48 475 l 1,9,-1
 48 507 l 1,10,-1
 213 507 l 1,11,-1
 213 475 l 1,12,-1
 418 475 l 1,13,-1
 418 349 l 1,14,-1
 213 349 l 1,15,-1
 213 126 l 1,16,-1
 254 126 l 1,17,-1
 254 317 l 1,18,-1
 418 317 l 1,19,-1
 418 63 l 2,0,1
EndSplineSet
EndChar

StartChar: U
Encoding: 85 85 56
Width: 412
Flags: W
LayerCount: 2
Fore
SplineSet
391 63 m 2,0,1
 391 0 391 0 309 0 c 2,2,-1
 103 0 l 2,3,4
 21 0 21 0 21 63 c 2,5,-1
 21 507 l 1,6,-1
 186 507 l 1,7,-1
 186 126 l 1,8,-1
 226 126 l 1,9,-1
 226 507 l 1,10,-1
 391 507 l 1,11,-1
 391 63 l 2,0,1
EndSplineSet
EndChar

StartChar: V
Encoding: 86 86 57
Width: 433
Flags: W
LayerCount: 2
Fore
SplineSet
343 0 m 1,0,-1
 96 0 l 1,1,-1
 14 507 l 1,2,-1
 178 507 l 1,3,-1
 220 222 l 1,4,-1
 261 507 l 1,5,-1
 426 507 l 1,6,-1
 343 0 l 1,0,-1
EndSplineSet
EndChar

StartChar: W
Encoding: 87 87 58
Width: 677
Flags: W
LayerCount: 2
Fore
SplineSet
587 0 m 1,0,-1
 381 0 l 1,1,-1
 340 254 l 1,2,-1
 298 0 l 1,3,-1
 93 0 l 1,4,-1
 10 507 l 1,5,-1
 175 507 l 1,6,-1
 217 222 l 1,7,-1
 258 507 l 1,8,-1
 422 507 l 1,9,-1
 463 222 l 1,10,-1
 505 507 l 1,11,-1
 670 507 l 1,12,-1
 587 0 l 1,0,-1
EndSplineSet
EndChar

StartChar: X
Encoding: 88 88 59
Width: 412
Flags: W
LayerCount: 2
Fore
SplineSet
243 0 m 1,0,-1
 206 85 l 1,1,-1
 169 0 l 1,2,-1
 21 0 l 1,3,-1
 132 254 l 1,4,-1
 21 507 l 1,5,-1
 169 507 l 1,6,-1
 206 422 l 1,7,-1
 243 507 l 1,8,-1
 391 507 l 1,9,-1
 280 254 l 1,10,-1
 391 0 l 1,11,-1
 243 0 l 1,0,-1
EndSplineSet
EndChar

StartChar: Y
Encoding: 89 89 60
Width: 412
Flags: W
LayerCount: 2
Fore
SplineSet
125 181 m 1,0,1
 21 181 21 181 21 284 c 2,2,-1
 21 507 l 1,3,-1
 186 507 l 1,4,-1
 186 307 l 1,5,-1
 226 307 l 1,6,-1
 226 507 l 1,7,-1
 391 507 l 1,8,-1
 391 284 l 2,9,10
 391 181 391 181 290 181 c 1,11,-1
 290 0 l 1,12,-1
 125 0 l 1,13,-1
 125 181 l 1,0,1
EndSplineSet
EndChar

StartChar: Z
Encoding: 90 90 61
Width: 412
Flags: W
LayerCount: 2
Fore
SplineSet
21 0 m 1,0,-1
 21 126 l 1,1,-1
 194 380 l 1,2,-1
 21 380 l 1,3,-1
 21 507 l 1,4,-1
 391 507 l 1,5,-1
 391 380 l 1,6,-1
 218 126 l 1,7,-1
 391 126 l 1,8,-1
 391 0 l 1,9,-1
 21 0 l 1,0,-1
EndSplineSet
EndChar

StartChar: bracketleft
Encoding: 91 91 62
Width: 265
Flags: W
LayerCount: 2
Fore
SplineSet
21 -157 m 1,0,-1
 21 664 l 1,1,-1
 241 664 l 1,2,-1
 241 537 l 1,3,-1
 186 537 l 1,4,-1
 186 -31 l 1,5,-1
 241 -31 l 1,6,-1
 241 -157 l 1,7,-1
 21 -157 l 1,0,-1
EndSplineSet
EndChar

StartChar: backslash
Encoding: 92 92 63
Width: 331
Flags: W
LayerCount: 2
Fore
SplineSet
226 0 m 1,0,-1
 21 507 l 1,1,-1
 94 507 l 1,2,-1
 299 0 l 1,3,-1
 226 0 l 1,0,-1
EndSplineSet
EndChar

StartChar: bracketright
Encoding: 93 93 64
Width: 265
Flags: W
LayerCount: 2
Fore
SplineSet
22 -157 m 1,0,-1
 22 -31 l 1,1,-1
 77 -31 l 1,2,-1
 77 537 l 1,3,-1
 22 537 l 1,4,-1
 22 664 l 1,5,-1
 242 664 l 1,6,-1
 242 -157 l 1,7,-1
 22 -157 l 1,0,-1
EndSplineSet
EndChar

StartChar: underscore
Encoding: 95 95 66
Width: 535
Flags: W
LayerCount: 2
Fore
SplineSet
-20 -219 m 1,0,-1
 -20 -155 l 1,1,-1
 556 -155 l 1,2,-1
 556 -219 l 1,3,-1
 -20 -219 l 1,0,-1
EndSplineSet
EndChar

StartChar: grave
Encoding: 96 96 67
Width: 509
Flags: W
LayerCount: 2
Fore
SplineSet
183 538 m 1,0,-1
 75 648 l 1,1,-1
 184 648 l 1,2,-1
 265 538 l 1,3,-1
 183 538 l 1,0,-1
EndSplineSet
EndChar

StartChar: a
Encoding: 97 97 68
Width: 412
Flags: W
LayerCount: 2
Fore
SplineSet
226 190 m 1,0,-1
 186 190 l 1,1,-1
 186 126 l 1,2,-1
 226 126 l 1,3,-1
 226 190 l 1,0,-1
103 0 m 2,4,5
 21 0 21 0 21 63 c 2,6,-1
 21 254 l 2,7,8
 21 317 21 317 103 317 c 2,9,-1
 226 317 l 1,10,-1
 226 380 l 1,11,-1
 186 380 l 1,12,-1
 186 349 l 1,13,-1
 21 349 l 1,14,-1
 21 443 l 2,15,16
 21 507 21 507 103 507 c 2,17,-1
 309 507 l 2,18,19
 391 507 391 507 391 443 c 2,20,-1
 391 0 l 1,21,-1
 103 0 l 2,4,5
EndSplineSet
EndChar

StartChar: b
Encoding: 98 98 69
Width: 412
Flags: W
LayerCount: 2
Fore
SplineSet
226 380 m 1,0,-1
 186 380 l 1,1,-1
 186 126 l 1,2,-1
 226 126 l 1,3,-1
 226 380 l 1,0,-1
391 63 m 2,4,5
 391 0 391 0 309 0 c 2,6,-1
 21 0 l 1,7,-1
 21 634 l 1,8,-1
 186 634 l 1,9,-1
 186 507 l 1,10,-1
 309 507 l 2,11,12
 391 507 391 507 391 443 c 2,13,-1
 391 63 l 2,4,5
EndSplineSet
EndChar

StartChar: c
Encoding: 99 99 70
Width: 412
Flags: W
LayerCount: 2
Fore
SplineSet
391 63 m 2,0,1
 391 0 391 0 309 0 c 2,2,-1
 103 0 l 2,3,4
 21 0 21 0 21 63 c 2,5,-1
 21 443 l 2,6,7
 21 507 21 507 103 507 c 2,8,-1
 309 507 l 2,9,10
 391 507 391 507 391 443 c 2,11,-1
 391 293 l 1,12,-1
 226 293 l 1,13,-1
 226 380 l 1,14,-1
 186 380 l 1,15,-1
 186 126 l 1,16,-1
 226 126 l 1,17,-1
 226 246 l 1,18,-1
 391 246 l 1,19,-1
 391 63 l 2,0,1
EndSplineSet
EndChar

StartChar: d
Encoding: 100 100 71
Width: 412
Flags: W
LayerCount: 2
Fore
SplineSet
226 380 m 1,0,-1
 186 380 l 1,1,-1
 186 126 l 1,2,-1
 226 126 l 1,3,-1
 226 380 l 1,0,-1
103 0 m 2,4,5
 21 0 21 0 21 63 c 2,6,-1
 21 443 l 2,7,8
 21 507 21 507 103 507 c 2,9,-1
 226 507 l 1,10,-1
 226 634 l 1,11,-1
 391 634 l 1,12,-1
 391 0 l 1,13,-1
 103 0 l 2,4,5
EndSplineSet
EndChar

StartChar: e
Encoding: 101 101 72
Width: 412
Flags: W
LayerCount: 2
Fore
SplineSet
226 380 m 1,0,-1
 186 380 l 1,1,-1
 186 317 l 1,2,-1
 226 317 l 1,3,-1
 226 380 l 1,0,-1
391 63 m 2,4,5
 391 0 391 0 309 0 c 2,6,-1
 103 0 l 2,7,8
 21 0 21 0 21 63 c 2,9,-1
 21 443 l 2,10,11
 21 507 21 507 103 507 c 2,12,-1
 309 507 l 2,13,14
 391 507 391 507 391 443 c 2,15,-1
 391 190 l 1,16,-1
 186 190 l 1,17,-1
 186 126 l 1,18,-1
 226 126 l 1,19,-1
 226 158 l 1,20,-1
 391 158 l 1,21,-1
 391 63 l 2,4,5
EndSplineSet
EndChar

StartChar: f
Encoding: 102 102 73
Width: 354
Flags: W
LayerCount: 2
Fore
SplineSet
186 222 m 1,0,-1
 186 0 l 1,1,-1
 21 0 l 1,2,-1
 21 443 l 2,3,4
 21 507 21 507 103 507 c 2,5,-1
 330 507 l 1,6,-1
 330 380 l 1,7,-1
 186 380 l 1,8,-1
 186 349 l 1,9,-1
 330 349 l 1,10,-1
 330 222 l 1,11,-1
 186 222 l 1,0,-1
EndSplineSet
EndChar

StartChar: g
Encoding: 103 103 74
Width: 412
Flags: W
LayerCount: 2
Fore
SplineSet
226 380 m 1,0,-1
 186 380 l 1,1,-1
 186 126 l 1,2,-1
 226 126 l 1,3,-1
 226 380 l 1,0,-1
391 -94 m 2,4,5
 391 -157 391 -157 309 -157 c 2,6,-1
 21 -157 l 1,7,-1
 21 -31 l 1,8,-1
 226 -31 l 1,9,-1
 226 0 l 1,10,-1
 103 0 l 2,11,12
 21 0 21 0 21 63 c 2,13,-1
 21 443 l 2,14,15
 21 507 21 507 103 507 c 2,16,-1
 391 507 l 1,17,-1
 391 -94 l 2,4,5
EndSplineSet
EndChar

StartChar: h
Encoding: 104 104 75
Width: 412
Flags: W
LayerCount: 2
Fore
SplineSet
226 0 m 1,0,-1
 226 380 l 1,1,-1
 186 380 l 1,2,-1
 186 0 l 1,3,-1
 21 0 l 1,4,-1
 21 634 l 1,5,-1
 186 634 l 1,6,-1
 186 507 l 1,7,-1
 309 507 l 2,8,9
 391 507 391 507 391 443 c 2,10,-1
 391 0 l 1,11,-1
 226 0 l 1,0,-1
EndSplineSet
EndChar

StartChar: i
Encoding: 105 105 76
Width: 206
Flags: W
LayerCount: 2
Fore
SplineSet
21 0 m 1,0,-1
 21 349 l 1,1,-1
 186 349 l 1,2,-1
 186 0 l 1,3,-1
 21 0 l 1,0,-1
21 380 m 1,4,-1
 21 507 l 1,5,-1
 186 507 l 1,6,-1
 186 380 l 1,7,-1
 21 380 l 1,4,-1
EndSplineSet
EndChar

StartChar: j
Encoding: 106 106 77
Width: 412
Flags: W
LayerCount: 2
Fore
SplineSet
391 63 m 2,0,1
 391 0 391 0 309 0 c 2,2,-1
 103 0 l 2,3,4
 21 0 21 0 21 63 c 2,5,-1
 21 254 l 1,6,-1
 186 254 l 1,7,-1
 186 126 l 1,8,-1
 226 126 l 1,9,-1
 226 349 l 1,10,-1
 391 349 l 1,11,-1
 391 63 l 2,0,1
226 380 m 1,12,-1
 226 507 l 1,13,-1
 391 507 l 1,14,-1
 391 380 l 1,15,-1
 226 380 l 1,12,-1
EndSplineSet
EndChar

StartChar: k
Encoding: 107 107 78
Width: 412
Flags: W
LayerCount: 2
Fore
SplineSet
234 0 m 1,0,-1
 180 78 l 1,1,-1
 180 0 l 1,2,-1
 21 0 l 1,3,-1
 21 507 l 1,4,-1
 180 507 l 1,5,-1
 180 429 l 1,6,-1
 234 507 l 1,7,-1
 408 507 l 1,8,-1
 244 254 l 1,9,-1
 408 0 l 1,10,-1
 234 0 l 1,0,-1
EndSplineSet
EndChar

StartChar: l
Encoding: 108 108 79
Width: 321
Flags: W
LayerCount: 2
Fore
SplineSet
21 0 m 1,0,-1
 21 507 l 1,1,-1
 186 507 l 1,2,-1
 186 126 l 1,3,-1
 293 126 l 1,4,-1
 293 0 l 1,5,-1
 21 0 l 1,0,-1
EndSplineSet
EndChar

StartChar: m
Encoding: 109 109 80
Width: 618
Flags: W
LayerCount: 2
Fore
SplineSet
433 0 m 1,0,-1
 433 380 l 1,1,-1
 391 380 l 1,2,-1
 391 0 l 1,3,-1
 226 0 l 1,4,-1
 226 380 l 1,5,-1
 186 380 l 1,6,-1
 186 0 l 1,7,-1
 21 0 l 1,8,-1
 21 507 l 1,9,-1
 186 507 l 1,10,-1
 186 475 l 1,11,12
 215 507 215 507 309 507 c 0,13,14
 357 507 357 507 383 469 c 1,15,16
 406 495 406 495 443 503 c 0,17,18
 458 507 458 507 514 507 c 0,19,20
 542 507 542 507 568 490 c 0,21,22
 597 470 597 470 597 443 c 2,23,-1
 597 0 l 1,24,-1
 433 0 l 1,0,-1
EndSplineSet
EndChar

StartChar: n
Encoding: 110 110 81
Width: 412
Flags: W
LayerCount: 2
Fore
SplineSet
226 0 m 1,0,-1
 226 380 l 1,1,-1
 186 380 l 1,2,-1
 186 0 l 1,3,-1
 21 0 l 1,4,-1
 21 507 l 1,5,-1
 186 507 l 1,6,-1
 186 475 l 1,7,8
 227 507 227 507 309 507 c 0,9,10
 337 507 337 507 363 490 c 0,11,12
 391 471 391 471 391 443 c 2,13,-1
 391 0 l 1,14,-1
 226 0 l 1,0,-1
EndSplineSet
EndChar

StartChar: o
Encoding: 111 111 82
Width: 412
Flags: W
LayerCount: 2
Fore
SplineSet
226 380 m 1,0,-1
 186 380 l 1,1,-1
 186 126 l 1,2,-1
 226 126 l 1,3,-1
 226 380 l 1,0,-1
391 63 m 2,4,5
 391 0 391 0 309 0 c 2,6,-1
 103 0 l 2,7,8
 21 0 21 0 21 63 c 2,9,-1
 21 443 l 2,10,11
 21 507 21 507 103 507 c 2,12,-1
 309 507 l 2,13,14
 391 507 391 507 391 443 c 2,15,-1
 391 63 l 2,4,5
EndSplineSet
EndChar

StartChar: p
Encoding: 112 112 83
Width: 412
Flags: W
LayerCount: 2
Fore
SplineSet
226 380 m 1,0,-1
 186 380 l 1,1,-1
 186 317 l 1,2,-1
 226 317 l 1,3,-1
 226 380 l 1,0,-1
391 254 m 2,4,5
 391 190 391 190 309 190 c 2,6,-1
 186 190 l 1,7,-1
 186 0 l 1,8,-1
 21 0 l 1,9,-1
 21 507 l 1,10,-1
 309 507 l 2,11,12
 391 507 391 507 391 443 c 2,13,-1
 391 254 l 2,4,5
EndSplineSet
EndChar

StartChar: q
Encoding: 113 113 84
Width: 412
Flags: W
LayerCount: 2
Fore
SplineSet
226 380 m 1,0,-1
 186 380 l 1,1,-1
 186 126 l 1,2,-1
 226 126 l 1,3,-1
 226 380 l 1,0,-1
226 -157 m 1,4,-1
 226 0 l 1,5,-1
 103 0 l 2,6,7
 21 0 21 0 21 63 c 2,8,-1
 21 443 l 2,9,10
 21 507 21 507 103 507 c 2,11,-1
 391 507 l 1,12,-1
 391 -157 l 1,13,-1
 226 -157 l 1,4,-1
EndSplineSet
EndChar

StartChar: r
Encoding: 114 114 85
Width: 412
Flags: W
LayerCount: 2
Fore
SplineSet
226 380 m 1,0,-1
 186 380 l 1,1,-1
 186 317 l 1,2,-1
 226 317 l 1,3,-1
 226 380 l 1,0,-1
226 0 m 1,4,-1
 226 190 l 1,5,-1
 186 190 l 1,6,-1
 186 0 l 1,7,-1
 21 0 l 1,8,-1
 21 507 l 1,9,-1
 309 507 l 2,10,11
 391 507 391 507 391 443 c 2,12,-1
 391 303 l 2,13,14
 391 271 391 271 350 254 c 1,15,16
 391 236 391 236 391 205 c 2,17,-1
 391 0 l 1,18,-1
 226 0 l 1,4,-1
EndSplineSet
EndChar

StartChar: s
Encoding: 115 115 86
Width: 412
Flags: W
LayerCount: 2
Fore
SplineSet
391 63 m 2,0,1
 391 0 391 0 309 0 c 2,2,-1
 103 0 l 2,3,4
 21 0 21 0 21 63 c 2,5,-1
 21 158 l 1,6,-1
 186 158 l 1,7,-1
 186 126 l 1,8,-1
 226 126 l 1,9,-1
 226 190 l 1,10,-1
 103 190 l 2,11,12
 21 190 21 190 21 254 c 2,13,-1
 21 443 l 2,14,15
 21 507 21 507 103 507 c 2,16,-1
 309 507 l 2,17,18
 391 507 391 507 391 443 c 2,19,-1
 391 349 l 1,20,-1
 226 349 l 1,21,-1
 226 380 l 1,22,-1
 186 380 l 1,23,-1
 186 317 l 1,24,-1
 309 317 l 2,25,26
 391 317 391 317 391 254 c 2,27,-1
 391 63 l 2,0,1
EndSplineSet
EndChar

StartChar: t
Encoding: 116 116 87
Width: 439
Flags: W
LayerCount: 2
Fore
SplineSet
418 63 m 2,0,1
 418 0 418 0 336 0 c 2,2,-1
 130 0 l 2,3,4
 48 0 48 0 48 63 c 2,5,-1
 48 349 l 1,6,-1
 7 349 l 1,7,-1
 7 475 l 1,8,-1
 48 475 l 1,9,-1
 48 507 l 1,10,-1
 213 507 l 1,11,-1
 213 475 l 1,12,-1
 418 475 l 1,13,-1
 418 349 l 1,14,-1
 213 349 l 1,15,-1
 213 126 l 1,16,-1
 254 126 l 1,17,-1
 254 317 l 1,18,-1
 418 317 l 1,19,-1
 418 63 l 2,0,1
EndSplineSet
EndChar

StartChar: u
Encoding: 117 117 88
Width: 412
Flags: W
LayerCount: 2
Fore
SplineSet
391 63 m 2,0,1
 391 0 391 0 309 0 c 2,2,-1
 103 0 l 2,3,4
 21 0 21 0 21 63 c 2,5,-1
 21 507 l 1,6,-1
 186 507 l 1,7,-1
 186 126 l 1,8,-1
 226 126 l 1,9,-1
 226 507 l 1,10,-1
 391 507 l 1,11,-1
 391 63 l 2,0,1
EndSplineSet
EndChar

StartChar: v
Encoding: 118 118 89
Width: 433
Flags: W
LayerCount: 2
Fore
SplineSet
343 0 m 1,0,-1
 96 0 l 1,1,-1
 14 507 l 1,2,-1
 178 507 l 1,3,-1
 220 222 l 1,4,-1
 261 507 l 1,5,-1
 426 507 l 1,6,-1
 343 0 l 1,0,-1
EndSplineSet
EndChar

StartChar: w
Encoding: 119 119 90
Width: 677
Flags: W
LayerCount: 2
Fore
SplineSet
587 0 m 1,0,-1
 381 0 l 1,1,-1
 340 254 l 1,2,-1
 298 0 l 1,3,-1
 93 0 l 1,4,-1
 10 507 l 1,5,-1
 175 507 l 1,6,-1
 217 222 l 1,7,-1
 258 507 l 1,8,-1
 422 507 l 1,9,-1
 463 222 l 1,10,-1
 505 507 l 1,11,-1
 670 507 l 1,12,-1
 587 0 l 1,0,-1
EndSplineSet
EndChar

StartChar: x
Encoding: 120 120 91
Width: 412
Flags: W
LayerCount: 2
Fore
SplineSet
243 0 m 1,0,-1
 206 85 l 1,1,-1
 169 0 l 1,2,-1
 21 0 l 1,3,-1
 132 254 l 1,4,-1
 21 507 l 1,5,-1
 169 507 l 1,6,-1
 206 422 l 1,7,-1
 243 507 l 1,8,-1
 391 507 l 1,9,-1
 280 254 l 1,10,-1
 391 0 l 1,11,-1
 243 0 l 1,0,-1
EndSplineSet
EndChar

StartChar: y
Encoding: 121 121 92
Width: 412
Flags: W
LayerCount: 2
Fore
SplineSet
391 -94 m 2,0,1
 391 -157 391 -157 309 -157 c 2,2,-1
 21 -157 l 1,3,-1
 21 -31 l 1,4,-1
 226 -31 l 1,5,-1
 226 0 l 1,6,-1
 103 0 l 2,7,8
 21 0 21 0 21 63 c 2,9,-1
 21 507 l 1,10,-1
 186 507 l 1,11,-1
 186 126 l 1,12,-1
 226 126 l 1,13,-1
 226 507 l 1,14,-1
 391 507 l 1,15,-1
 391 -94 l 2,0,1
EndSplineSet
EndChar

StartChar: z
Encoding: 122 122 93
Width: 412
Flags: W
LayerCount: 2
Fore
SplineSet
21 0 m 1,0,-1
 21 126 l 1,1,-1
 194 380 l 1,2,-1
 21 380 l 1,3,-1
 21 507 l 1,4,-1
 391 507 l 1,5,-1
 391 380 l 1,6,-1
 218 126 l 1,7,-1
 391 126 l 1,8,-1
 391 0 l 1,9,-1
 21 0 l 1,0,-1
EndSplineSet
EndChar

StartChar: braceleft
Encoding: 123 123 94
Width: 325
Flags: W
LayerCount: 2
Fore
SplineSet
163 -157 m 2,0,1
 136 -157 136 -157 110 -140 c 0,2,3
 81 -120 81 -120 81 -94 c 2,4,-1
 81 180 l 1,5,-1
 8 255 l 1,6,-1
 81 329 l 1,7,-1
 81 600 l 2,8,9
 81 626 81 626 110 646 c 0,10,11
 135 664 135 664 163 664 c 2,12,-1
 301 664 l 1,13,-1
 301 537 l 1,14,-1
 246 537 l 1,15,-1
 246 303 l 1,16,-1
 196 254 l 1,17,-1
 246 206 l 1,18,-1
 246 -31 l 1,19,-1
 301 -31 l 1,20,-1
 301 -157 l 1,21,-1
 163 -157 l 2,0,1
EndSplineSet
EndChar

StartChar: bar
Encoding: 124 124 95
Width: 114
Flags: W
LayerCount: 2
Fore
SplineSet
21 -79 m 1,0,-1
 21 587 l 1,1,-1
 90 587 l 1,2,-1
 90 -79 l 1,3,-1
 21 -79 l 1,0,-1
EndSplineSet
EndChar

StartChar: braceright
Encoding: 125 125 96
Width: 325
Flags: W
LayerCount: 2
Fore
SplineSet
145 664 m 2,0,1
 172 664 172 664 198 647 c 0,2,3
 227 627 227 627 227 601 c 2,4,-1
 227 326 l 1,5,-1
 300 251 l 1,6,-1
 227 177 l 1,7,-1
 227 -93 l 2,8,9
 227 -119 227 -119 198 -139 c 0,10,11
 172 -157 172 -157 145 -157 c 2,12,-1
 7 -157 l 1,13,-1
 7 -30 l 1,14,-1
 62 -30 l 1,15,-1
 62 203 l 1,16,-1
 112 252 l 1,17,-1
 62 300 l 1,18,-1
 62 538 l 1,19,-1
 7 538 l 1,20,-1
 7 664 l 1,21,-1
 145 664 l 2,0,1
EndSplineSet
EndChar

StartChar: Euro
Encoding: 8364 8364 101
Width: 412
Flags: W
LayerCount: 2
Fore
SplineSet
-10 197 m 1,0,-1
 -10 237 l 1,1,-1
 21 237 l 1,2,-1
 21 274 l 1,3,-1
 -10 274 l 1,4,-1
 -10 319 l 1,5,-1
 21 319 l 1,6,-1
 21 443 l 2,7,8
 21 507 21 507 103 507 c 2,9,-1
 309 507 l 2,10,11
 391 507 391 507 391 443 c 2,12,-1
 391 343 l 1,13,-1
 226 343 l 1,14,-1
 226 380 l 1,15,-1
 186 380 l 1,16,-1
 186 319 l 1,17,-1
 391 319 l 1,18,-1
 391 274 l 1,19,-1
 186 274 l 1,20,-1
 186 237 l 1,21,-1
 391 237 l 1,22,-1
 391 197 l 1,23,-1
 186 197 l 1,24,-1
 186 126 l 1,25,-1
 226 126 l 1,26,-1
 226 168 l 1,27,-1
 391 168 l 1,28,-1
 391 63 l 2,29,30
 391 0 391 0 309 0 c 2,31,-1
 103 0 l 2,32,33
 21 0 21 0 21 63 c 2,34,-1
 21 197 l 1,35,-1
 -10 197 l 1,0,-1
EndSplineSet
EndChar

StartChar: perthousand
Encoding: 8240 8240 102
Width: 708
Flags: W
LayerCount: 2
Fore
SplineSet
300 0 m 1,0,-1
 300 126 l 1,1,-1
 465 126 l 1,2,-1
 465 0 l 1,3,-1
 300 0 l 1,0,-1
225 0 m 1,4,-1
 60 0 l 1,5,-1
 265 507 l 1,6,-1
 430 507 l 1,7,-1
 225 0 l 1,4,-1
27 381 m 1,8,-1
 27 507 l 1,9,-1
 192 507 l 1,10,-1
 192 381 l 1,11,-1
 27 381 l 1,8,-1
510 0 m 1,12,-1
 510 126 l 1,13,-1
 675 126 l 1,14,-1
 675 0 l 1,15,-1
 510 0 l 1,12,-1
EndSplineSet
EndChar

StartChar: guilsinglleft
Encoding: 8249 8249 103
Width: 399
Flags: W
LayerCount: 2
Fore
SplineSet
211 142 m 1,0,-1
 27 326 l 1,1,-1
 211 511 l 1,2,-1
 369 511 l 1,3,-1
 184 326 l 1,4,-1
 369 142 l 1,5,-1
 211 142 l 1,0,-1
EndSplineSet
EndChar

StartChar: quoteleft
Encoding: 8216 8216 104
Width: 220
Flags: W
LayerCount: 2
Fore
SplineSet
30 726 m 1,0,-1
 195 726 l 1,1,-1
 195 600 l 1,2,-1
 113 600 l 1,3,-1
 113 568 l 1,4,-1
 195 568 l 1,5,-1
 195 505 l 1,6,-1
 113 505 l 2,7,8
 85 505 85 505 59 522 c 0,9,10
 30 542 30 542 30 568 c 2,11,-1
 30 726 l 1,0,-1
EndSplineSet
EndChar

StartChar: quotedblleft
Encoding: 8220 8220 106
Width: 422
Flags: W
LayerCount: 2
Fore
SplineSet
32 726 m 1,0,-1
 197 726 l 1,1,-1
 197 600 l 1,2,-1
 115 600 l 1,3,-1
 115 568 l 1,4,-1
 197 568 l 1,5,-1
 197 505 l 1,6,-1
 115 505 l 2,7,8
 87 505 87 505 61 522 c 0,9,10
 32 542 32 542 32 568 c 2,11,-1
 32 726 l 1,0,-1
222 726 m 1,12,-1
 387 726 l 1,13,-1
 387 600 l 1,14,-1
 305 600 l 1,15,-1
 305 568 l 1,16,-1
 387 568 l 1,17,-1
 387 505 l 1,18,-1
 305 505 l 2,19,20
 277 505 277 505 251 522 c 0,21,22
 222 542 222 542 222 568 c 2,23,-1
 222 726 l 1,12,-1
EndSplineSet
EndChar

StartChar: bullet
Encoding: 8226 8226 108
Width: 479
Flags: W
LayerCount: 2
Fore
SplineSet
341 344 m 1,0,-1
 379 195 l 1,1,-1
 246 273 l 1,2,-1
 116 191 l 1,3,-1
 149 341 l 1,4,-1
 31 439 l 1,5,-1
 184 454 l 1,6,-1
 240 597 l 1,7,-1
 302 456 l 1,8,-1
 456 446 l 1,9,-1
 341 344 l 1,0,-1
EndSplineSet
EndChar

StartChar: endash
Encoding: 8211 8211 109
Width: 380
Flags: W
LayerCount: 2
Fore
SplineSet
21 190 m 1,0,-1
 21 317 l 1,1,-1
 359 317 l 1,2,-1
 359 190 l 1,3,-1
 21 190 l 1,0,-1
EndSplineSet
EndChar

StartChar: emdash
Encoding: 8212 8212 110
Width: 668
Flags: W
LayerCount: 2
Fore
SplineSet
21 190 m 1,0,-1
 21 317 l 1,1,-1
 641 317 l 1,2,-1
 641 190 l 1,3,-1
 21 190 l 1,0,-1
EndSplineSet
EndChar

StartChar: trademark
Encoding: 8482 8482 111
Width: 492
Flags: W
LayerCount: 2
Fore
SplineSet
203 302 m 2,0,1
 203 275 203 275 169 275 c 2,2,-1
 81 275 l 2,3,4
 46 275 46 275 46 302 c 2,5,-1
 46 423 l 1,6,-1
 29 423 l 1,7,-1
 29 477 l 1,8,-1
 46 477 l 1,9,-1
 46 491 l 1,10,-1
 116 491 l 1,11,-1
 116 477 l 1,12,-1
 203 477 l 1,13,-1
 203 423 l 1,14,-1
 116 423 l 1,15,-1
 116 329 l 1,16,-1
 134 329 l 1,17,-1
 134 410 l 1,18,-1
 203 410 l 1,19,-1
 203 302 l 2,0,1
401 275 m 1,20,-1
 401 437 l 1,21,-1
 384 437 l 1,22,-1
 384 275 l 1,23,-1
 314 275 l 1,24,-1
 314 437 l 1,25,-1
 297 437 l 1,26,-1
 297 275 l 1,27,-1
 227 275 l 1,28,-1
 227 491 l 1,29,-1
 297 491 l 1,30,-1
 297 477 l 1,31,32
 309 491 309 491 349 491 c 0,33,34
 369 491 369 491 380 474 c 1,35,36
 390 484 390 484 406 489 c 0,37,38
 411 490 411 490 418.5 490.5 c 128,-1,39
 426 491 426 491 436 491 c 0,40,41
 448 491 448 491 459 483 c 0,42,43
 471 475 471 475 471 463 c 2,44,-1
 471 275 l 1,45,-1
 401 275 l 1,20,-1
EndSplineSet
EndChar

StartChar: guilsinglright
Encoding: 8250 8250 112
Width: 399
Flags: W
LayerCount: 2
Fore
SplineSet
187 142 m 1,0,-1
 29 142 l 1,1,-1
 214 326 l 1,2,-1
 29 511 l 1,3,-1
 187 511 l 1,4,-1
 372 326 l 1,5,-1
 187 142 l 1,0,-1
EndSplineSet
EndChar

StartChar: uni040E
Encoding: 1038 1038 113
Width: 412
Flags: W
LayerCount: 2
Fore
SplineSet
169 0 m 1,0,-1
 21 0 l 1,1,-1
 132 254 l 1,2,-1
 21 507 l 1,3,-1
 169 507 l 1,4,-1
 206 422 l 1,5,-1
 243 507 l 1,6,-1
 391 507 l 1,7,-1
 169 0 l 1,0,-1
149 648 m 1,8,9
 155 591 155 591 202 589 c 0,10,11
 250 588 250 588 256 648 c 1,12,-1
 340 648 l 1,13,14
 332 613 332 613 305 574 c 0,15,16
 279 538 279 538 204 538 c 0,17,18
 130 538 130 538 102 574 c 0,19,20
 74 611 74 611 65 648 c 1,21,-1
 149 648 l 1,8,9
EndSplineSet
EndChar

StartChar: uni045E
Encoding: 1118 1118 114
Width: 412
Flags: W
LayerCount: 2
Fore
SplineSet
149 648 m 1,0,1
 155 591 155 591 202 589 c 0,2,3
 250 588 250 588 256 648 c 1,4,-1
 340 648 l 1,5,6
 332 613 332 613 305 574 c 0,7,8
 279 538 279 538 204 538 c 0,9,10
 130 538 130 538 102 574 c 0,11,12
 74 611 74 611 65 648 c 1,13,-1
 149 648 l 1,0,1
391 -94 m 2,14,15
 391 -157 391 -157 309 -157 c 2,16,-1
 21 -157 l 1,17,-1
 21 -31 l 1,18,-1
 226 -31 l 1,19,-1
 226 0 l 1,20,-1
 103 0 l 2,21,22
 21 0 21 0 21 63 c 2,23,-1
 21 507 l 1,24,-1
 186 507 l 1,25,-1
 186 126 l 1,26,-1
 226 126 l 1,27,-1
 226 507 l 1,28,-1
 391 507 l 1,29,-1
 391 -94 l 2,14,15
EndSplineSet
EndChar

StartChar: currency
Encoding: 164 164 115
Width: 412
Flags: W
LayerCount: 2
Fore
SplineSet
-10 197 m 1,0,-1
 -10 237 l 1,1,-1
 21 237 l 1,2,-1
 21 274 l 1,3,-1
 -10 274 l 1,4,-1
 -10 319 l 1,5,-1
 21 319 l 1,6,-1
 21 443 l 2,7,8
 21 507 21 507 103 507 c 2,9,-1
 309 507 l 2,10,11
 391 507 391 507 391 443 c 2,12,-1
 391 343 l 1,13,-1
 226 343 l 1,14,-1
 226 380 l 1,15,-1
 186 380 l 1,16,-1
 186 319 l 1,17,-1
 391 319 l 1,18,-1
 391 274 l 1,19,-1
 186 274 l 1,20,-1
 186 237 l 1,21,-1
 391 237 l 1,22,-1
 391 197 l 1,23,-1
 186 197 l 1,24,-1
 186 126 l 1,25,-1
 226 126 l 1,26,-1
 226 168 l 1,27,-1
 391 168 l 1,28,-1
 391 63 l 2,29,30
 391 0 391 0 309 0 c 2,31,-1
 103 0 l 2,32,33
 21 0 21 0 21 63 c 2,34,-1
 21 197 l 1,35,-1
 -10 197 l 1,0,-1
EndSplineSet
EndChar

StartChar: copyright
Encoding: 169 169 117
Width: 452
Flags: W
LayerCount: 2
Fore
SplineSet
330 160 m 2,0,1
 330 125 330 125 284 125 c 2,2,-1
 168 125 l 2,3,4
 122 125 122 125 122 160 c 2,5,-1
 122 373 l 2,6,7
 122 409 122 409 168 409 c 2,8,-1
 284 409 l 2,9,10
 330 409 330 409 330 373 c 2,11,-1
 330 289 l 1,12,-1
 237 289 l 1,13,-1
 237 338 l 1,14,-1
 215 338 l 1,15,-1
 215 195 l 1,16,-1
 237 195 l 1,17,-1
 237 263 l 1,18,-1
 330 263 l 1,19,-1
 330 160 l 2,0,1
366 470 m 1,20,-1
 86 470 l 1,21,-1
 86 76 l 1,22,-1
 366 76 l 1,23,-1
 366 470 l 1,20,-1
431 63 m 2,24,25
 431 36 431 36 404 18 c 256,26,27
 377 0 377 0 349 0 c 2,28,-1
 103 0 l 2,29,30
 75 0 75 0 48 18 c 256,31,32
 21 36 21 36 21 63 c 2,33,-1
 21 483 l 2,34,35
 21 511 21 511 49 530 c 0,36,37
 75 547 75 547 103 547 c 2,38,-1
 349 547 l 2,39,40
 377 547 377 547 403 530 c 0,41,42
 431 511 431 511 431 483 c 2,43,-1
 431 63 l 2,24,25
EndSplineSet
EndChar

StartChar: guillemotleft
Encoding: 171 171 118
Width: 610
Flags: W
LayerCount: 2
Fore
SplineSet
237 326 m 1,0,-1
 422 511 l 1,1,-1
 580 511 l 1,2,-1
 395 326 l 1,3,-1
 580 142 l 1,4,-1
 422 142 l 1,5,-1
 237 326 l 1,0,-1
27 326 m 1,6,-1
 212 511 l 1,7,-1
 370 511 l 1,8,-1
 185 326 l 1,9,-1
 370 142 l 1,10,-1
 212 142 l 1,11,-1
 27 326 l 1,6,-1
EndSplineSet
EndChar

StartChar: registered
Encoding: 174 174 119
Width: 452
Flags: W
LayerCount: 2
Fore
SplineSet
235 343 m 1,0,-1
 213 343 l 1,1,-1
 213 308 l 1,2,-1
 235 308 l 1,3,-1
 235 343 l 1,0,-1
235 128 m 1,4,-1
 235 235 l 1,5,-1
 213 235 l 1,6,-1
 213 128 l 1,7,-1
 119 128 l 1,8,-1
 119 415 l 1,9,-1
 282 415 l 2,10,11
 329 415 329 415 329 379 c 2,12,-1
 329 300 l 2,13,14
 329 281 329 281 306 272 c 1,15,16
 329 261 329 261 329 244 c 2,17,-1
 329 128 l 1,18,-1
 235 128 l 1,4,-1
366 470 m 1,19,-1
 86 470 l 1,20,-1
 86 76 l 1,21,-1
 366 76 l 1,22,-1
 366 470 l 1,19,-1
431 63 m 2,23,24
 431 36 431 36 404 18 c 256,25,26
 377 0 377 0 349 0 c 2,27,-1
 103 0 l 2,28,29
 75 0 75 0 48 18 c 256,30,31
 21 36 21 36 21 63 c 2,32,-1
 21 483 l 2,33,34
 21 511 21 511 49 530 c 0,35,36
 75 547 75 547 103 547 c 2,37,-1
 349 547 l 2,38,39
 377 547 377 547 403 530 c 0,40,41
 431 511 431 511 431 483 c 2,42,-1
 431 63 l 2,23,24
EndSplineSet
EndChar

StartChar: degree
Encoding: 176 176 120
Width: 287
Flags: W
LayerCount: 2
Fore
SplineSet
108 451 m 0,0,1
 108 436 108 436 119 424.5 c 128,-1,2
 130 413 130 413 147 413 c 0,3,4
 162 413 162 413 173.5 424.5 c 128,-1,5
 185 436 185 436 185 451 c 0,6,7
 185 468 185 468 173.5 479 c 128,-1,8
 162 490 162 490 147 490 c 0,9,10
 130 490 130 490 119 479 c 128,-1,11
 108 468 108 468 108 451 c 0,0,1
47 451 m 256,12,13
 47 493 47 493 75.5 522 c 128,-1,14
 104 551 104 551 146 551 c 0,15,16
 167 551 167 551 185 543 c 128,-1,17
 203 535 203 535 216.5 521.5 c 128,-1,18
 230 508 230 508 238 490 c 128,-1,19
 246 472 246 472 246 451 c 0,20,21
 246 409 246 409 217 380.5 c 128,-1,22
 188 352 188 352 146 352 c 256,23,24
 104 352 104 352 75.5 380.5 c 128,-1,25
 47 409 47 409 47 451 c 256,12,13
EndSplineSet
EndChar

StartChar: paragraph
Encoding: 182 182 121
Width: 206
Flags: W
LayerCount: 2
Fore
SplineSet
21 126 m 1,0,-1
 21 380 l 1,1,-1
 -28 380 l 1,2,-1
 -28 507 l 1,3,-1
 233 507 l 1,4,-1
 233 380 l 1,5,-1
 186 380 l 1,6,-1
 186 126 l 1,7,-1
 233 126 l 1,8,-1
 233 0 l 1,9,-1
 -28 0 l 1,10,-1
 -28 126 l 1,11,-1
 21 126 l 1,0,-1
EndSplineSet
EndChar

StartChar: uni2116
Encoding: 8470 8470 123
Width: 701
Flags: W
LayerCount: 2
Fore
SplineSet
226 507 m 1,0,-1
 309 253 l 1,1,-1
 309 507 l 1,2,-1
 474 507 l 1,3,-1
 474 0 l 1,4,-1
 269 0 l 1,5,-1
 186 285 l 1,6,-1
 186 0 l 1,7,-1
 21 0 l 1,8,-1
 21 507 l 1,9,-1
 226 507 l 1,0,-1
680 475 m 2,10,11
 680 507 680 507 639 507 c 2,12,-1
 536 507 l 2,13,14
 495 507 495 507 495 475 c 2,15,-1
 495 285 l 2,16,17
 495 254 495 254 536 254 c 2,18,-1
 639 254 l 2,19,20
 680 254 680 254 680 285 c 2,21,-1
 680 475 l 2,10,11
598 317 m 1,22,-1
 578 317 l 1,23,-1
 578 444 l 1,24,-1
 598 444 l 1,25,-1
 598 317 l 1,22,-1
680 171 m 1,26,-1
 680 234 l 1,27,-1
 495 234 l 1,28,-1
 495 171 l 1,29,-1
 680 171 l 1,26,-1
EndSplineSet
EndChar

StartChar: guillemotright
Encoding: 187 187 124
Width: 609
Flags: W
LayerCount: 2
Fore
SplineSet
397 142 m 1,0,-1
 239 142 l 1,1,-1
 424 326 l 1,2,-1
 239 511 l 1,3,-1
 397 511 l 1,4,-1
 582 326 l 1,5,-1
 397 142 l 1,0,-1
187 142 m 1,6,-1
 29 142 l 1,7,-1
 214 326 l 1,8,-1
 29 511 l 1,9,-1
 187 511 l 1,10,-1
 372 326 l 1,11,-1
 187 142 l 1,6,-1
EndSplineSet
EndChar

StartChar: uni0410
Encoding: 1040 1040 125
Width: 412
Flags: W
LayerCount: 2
Fore
SplineSet
226 380 m 1,0,-1
 186 380 l 1,1,-1
 186 317 l 1,2,-1
 226 317 l 1,3,-1
 226 380 l 1,0,-1
309 -157 m 2,4,5
 281 -157 281 -157 255 -140 c 0,6,7
 226 -120 226 -120 226 -94 c 2,8,-1
 226 190 l 1,9,-1
 186 190 l 1,10,-1
 186 0 l 1,11,-1
 21 0 l 1,12,-1
 21 443 l 2,13,14
 21 507 21 507 103 507 c 2,15,-1
 309 507 l 2,16,17
 391 507 391 507 391 443 c 2,18,-1
 391 -31 l 1,19,-1
 597 -31 l 1,20,-1
 597 -157 l 1,21,-1
 309 -157 l 2,4,5
EndSplineSet
EndChar

StartChar: uni0411
Encoding: 1041 1041 126
Width: 412
Flags: W
LayerCount: 2
Fore
SplineSet
186 380 m 1,0,-1
 186 317 l 1,1,-1
 309 317 l 2,2,3
 391 317 391 317 391 254 c 2,4,-1
 391 63 l 2,5,6
 391 0 391 0 309 0 c 2,7,-1
 103 0 l 2,8,9
 21 0 21 0 21 63 c 2,10,-1
 21 443 l 2,11,12
 21 507 21 507 103 507 c 2,13,-1
 391 507 l 1,14,-1
 391 380 l 1,15,-1
 186 380 l 1,16,-1
 186 380 l 1,0,-1
226 126 m 1,17,-1
 226 190 l 1,18,-1
 186 190 l 1,19,-1
 186 126 l 1,20,-1
 226 126 l 1,17,-1
EndSplineSet
EndChar

StartChar: uni0412
Encoding: 1042 1042 127
Width: 412
Flags: W
LayerCount: 2
Fore
SplineSet
226 190 m 1,0,-1
 186 190 l 1,1,-1
 186 126 l 1,2,-1
 226 126 l 1,3,-1
 226 190 l 1,0,-1
226 380 m 1,4,-1
 186 380 l 1,5,-1
 186 317 l 1,6,-1
 226 317 l 1,7,-1
 226 380 l 1,4,-1
391 63 m 2,8,9
 391 0 391 0 309 0 c 2,10,-1
 21 0 l 1,11,-1
 21 507 l 1,12,-1
 309 507 l 2,13,14
 391 507 391 507 391 443 c 2,15,-1
 391 295 l 2,16,17
 391 259 391 259 350 254 c 1,18,19
 391 248 391 248 391 212 c 2,20,-1
 391 63 l 2,8,9
EndSplineSet
EndChar

StartChar: uni0413
Encoding: 1043 1043 128
Width: 362
Flags: W
LayerCount: 2
Fore
SplineSet
186 0 m 1,0,-1
 21 0 l 1,1,-1
 21 507 l 1,2,-1
 341 507 l 1,3,-1
 341 380 l 1,4,-1
 186 380 l 1,5,-1
 186 0 l 1,0,-1
EndSplineSet
EndChar

StartChar: uni0414
Encoding: 1044 1044 129
Width: 512
Flags: W
LayerCount: 2
Fore
SplineSet
276 381 m 1,0,-1
 236 381 l 1,1,-1
 236 127 l 1,2,-1
 276 127 l 1,3,-1
 276 381 l 1,0,-1
491 127 m 1,4,-1
 491 0 l 1,5,-1
 21 0 l 1,6,-1
 21 127 l 1,7,-1
 71 127 l 1,8,-1
 71 444 l 2,9,10
 71 507 71 507 153 507 c 2,11,-1
 359 507 l 2,12,13
 441 507 441 507 441 444 c 2,14,-1
 441 127 l 1,15,-1
 491 127 l 1,4,-1
EndSplineSet
EndChar

StartChar: uni0415
Encoding: 1045 1045 130
Width: 325
Flags: W
LayerCount: 2
Fore
SplineSet
186 317 m 1,0,-1
 301 317 l 1,1,-1
 301 190 l 1,2,-1
 186 190 l 1,3,-1
 186 126 l 1,4,-1
 301 126 l 1,5,-1
 301 0 l 1,6,-1
 21 0 l 1,7,-1
 21 507 l 1,8,-1
 301 507 l 1,9,-1
 301 380 l 1,10,-1
 186 380 l 1,11,-1
 186 317 l 1,0,-1
EndSplineSet
EndChar

StartChar: uni0416
Encoding: 1046 1046 131
Width: 635
Flags: W
LayerCount: 2
Fore
SplineSet
397 0 m 1,0,-1
 238 0 l 1,1,-1
 238 78 l 1,2,-1
 184 0 l 1,3,-1
 10 0 l 1,4,-1
 174 254 l 1,5,-1
 10 507 l 1,6,-1
 184 507 l 1,7,-1
 238 429 l 1,8,-1
 238 507 l 1,9,-1
 397 507 l 1,10,-1
 397 429 l 1,11,-1
 451 507 l 1,12,-1
 625 507 l 1,13,-1
 461 254 l 1,14,-1
 625 0 l 1,15,-1
 451 0 l 1,16,-1
 397 78 l 1,17,-1
 397 0 l 1,0,-1
EndSplineSet
EndChar

StartChar: uni0417
Encoding: 1047 1047 132
Width: 412
Flags: W
LayerCount: 2
Fore
SplineSet
391 63 m 2,0,1
 391 0 391 0 309 0 c 2,2,-1
 103 0 l 2,3,4
 21 0 21 0 21 63 c 2,5,-1
 21 158 l 1,6,-1
 186 158 l 1,7,-1
 186 126 l 1,8,-1
 226 126 l 1,9,-1
 226 190 l 1,10,-1
 21 190 l 1,11,-1
 21 317 l 1,12,-1
 226 317 l 1,13,-1
 226 380 l 1,14,-1
 186 380 l 1,15,-1
 186 349 l 1,16,-1
 21 349 l 1,17,-1
 21 443 l 2,18,19
 21 507 21 507 103 507 c 2,20,-1
 309 507 l 2,21,22
 391 507 391 507 391 443 c 2,23,-1
 391 295 l 2,24,25
 391 265 391 265 350 254 c 1,26,27
 391 243 391 243 391 212 c 2,28,-1
 391 63 l 2,0,1
EndSplineSet
EndChar

StartChar: uni0418
Encoding: 1048 1048 133
Width: 495
Flags: W
LayerCount: 2
Fore
SplineSet
309 285 m 1,0,-1
 226 0 l 1,1,-1
 21 0 l 1,2,-1
 21 507 l 1,3,-1
 186 507 l 1,4,-1
 186 253 l 1,5,-1
 269 507 l 1,6,-1
 474 507 l 1,7,-1
 474 -31 l 1,8,-1
 309 285 l 1,0,-1
474 507 m 1,9,-1
 474 -31 l 1,10,-1
 680 -31 l 1,11,-1
 680 -157 l 1,12,-1
 392 -157 l 2,13,14
 364 -157 364 -157 338 -140 c 0,15,16
 309 -120 309 -120 309 -94 c 2,17,-1
 309 285 l 1,18,-1
 474 507 l 1,9,-1
EndSplineSet
EndChar

StartChar: uni0419
Encoding: 1049 1049 134
Width: 495
Flags: W
LayerCount: 2
Fore
SplineSet
202 648 m 1,0,1
 208 591 208 591 255 589 c 0,2,3
 303 588 303 588 309 648 c 1,4,-1
 393 648 l 1,5,6
 385 613 385 613 358 574 c 0,7,8
 332 538 332 538 257 538 c 0,9,10
 183 538 183 538 155 574 c 0,11,12
 127 611 127 611 118 648 c 1,13,-1
 202 648 l 1,0,1
309 285 m 1,14,-1
 309 -94 l 2,15,16
 309 -120 309 -120 338 -140 c 0,17,18
 364 -157 364 -157 392 -157 c 2,19,-1
 680 -157 l 1,20,-1
 680 -31 l 1,21,-1
 474 -31 l 1,22,-1
 474 507 l 1,23,-1
 309 285 l 1,14,-1
474 -31 m 1,24,-1
 474 507 l 1,25,-1
 269 507 l 1,26,-1
 186 253 l 1,27,-1
 186 507 l 1,28,-1
 21 507 l 1,29,-1
 21 0 l 1,30,-1
 226 0 l 1,31,-1
 309 285 l 1,32,-1
 474 -31 l 1,24,-1
EndSplineSet
EndChar

StartChar: uni041A
Encoding: 1050 1050 135
Width: 412
Flags: W
LayerCount: 2
Fore
SplineSet
234 0 m 1,0,-1
 180 78 l 1,1,-1
 180 0 l 1,2,-1
 21 0 l 1,3,-1
 21 507 l 1,4,-1
 180 507 l 1,5,-1
 180 429 l 1,6,-1
 234 507 l 1,7,-1
 408 507 l 1,8,-1
 244 254 l 1,9,-1
 408 0 l 1,10,-1
 234 0 l 1,0,-1
EndSplineSet
EndChar

StartChar: uni041B
Encoding: 1051 1051 136
Width: 433
Flags: W
LayerCount: 2
Fore
SplineSet
426 0 m 1,0,-1
 261 0 l 1,1,-1
 220 285 l 1,2,-1
 178 0 l 1,3,-1
 14 0 l 1,4,-1
 96 507 l 1,5,-1
 343 507 l 1,6,-1
 426 0 l 1,0,-1
EndSplineSet
EndChar

StartChar: uni041C
Encoding: 1052 1052 137
Width: 677
Flags: W
LayerCount: 2
Fore
SplineSet
670 0 m 1,0,-1
 505 0 l 1,1,-1
 463 285 l 1,2,-1
 422 0 l 1,3,-1
 258 0 l 1,4,-1
 217 285 l 1,5,-1
 175 0 l 1,6,-1
 10 0 l 1,7,-1
 93 507 l 1,8,-1
 298 507 l 1,9,-1
 340 253 l 1,10,-1
 381 507 l 1,11,-1
 587 507 l 1,12,-1
 670 0 l 1,0,-1
EndSplineSet
EndChar

StartChar: uni041D
Encoding: 1053 1053 138
Width: 412
Flags: W
LayerCount: 2
Fore
SplineSet
309 -157 m 2,0,1
 281 -157 281 -157 255 -140 c 0,2,3
 226 -120 226 -120 226 -94 c 2,4,-1
 226 190 l 1,5,-1
 186 190 l 1,6,-1
 186 0 l 1,7,-1
 21 0 l 1,8,-1
 21 507 l 1,9,-1
 186 507 l 1,10,-1
 186 317 l 1,11,-1
 226 317 l 1,12,-1
 226 507 l 1,13,-1
 391 507 l 1,14,-1
 391 -31 l 1,15,-1
 597 -31 l 1,16,-1
 597 -157 l 1,17,-1
 309 -157 l 2,0,1
EndSplineSet
EndChar

StartChar: uni041E
Encoding: 1054 1054 139
Width: 412
Flags: W
LayerCount: 2
Fore
SplineSet
226 380 m 1,0,-1
 186 380 l 1,1,-1
 186 126 l 1,2,-1
 226 126 l 1,3,-1
 226 380 l 1,0,-1
391 63 m 2,4,5
 391 0 391 0 309 0 c 2,6,-1
 103 0 l 2,7,8
 21 0 21 0 21 63 c 2,9,-1
 21 443 l 2,10,11
 21 507 21 507 103 507 c 2,12,-1
 309 507 l 2,13,14
 391 507 391 507 391 443 c 2,15,-1
 391 63 l 2,4,5
EndSplineSet
EndChar

StartChar: uni041F
Encoding: 1055 1055 140
Width: 412
Flags: W
LayerCount: 2
Fore
SplineSet
21 507 m 1,0,-1
 391 507 l 1,1,-1
 391 -31 l 1,2,-1
 597 -31 l 1,3,-1
 597 -157 l 1,4,-1
 309 -157 l 2,5,6
 281 -157 281 -157 255 -140 c 0,7,8
 226 -120 226 -120 226 -94 c 2,9,-1
 226 380 l 1,10,-1
 186 380 l 1,11,-1
 186 0 l 1,12,-1
 21 0 l 1,13,-1
 21 507 l 1,0,-1
EndSplineSet
EndChar

StartChar: uni0420
Encoding: 1056 1056 141
Width: 412
Flags: W
LayerCount: 2
Fore
SplineSet
226 380 m 1,0,-1
 186 380 l 1,1,-1
 186 317 l 1,2,-1
 226 317 l 1,3,-1
 226 380 l 1,0,-1
391 254 m 2,4,5
 391 190 391 190 309 190 c 2,6,-1
 186 190 l 1,7,-1
 186 0 l 1,8,-1
 21 0 l 1,9,-1
 21 507 l 1,10,-1
 309 507 l 2,11,12
 391 507 391 507 391 443 c 2,13,-1
 391 254 l 2,4,5
EndSplineSet
EndChar

StartChar: uni0421
Encoding: 1057 1057 142
Width: 412
Flags: W
LayerCount: 2
Fore
SplineSet
391 63 m 2,0,1
 391 0 391 0 309 0 c 2,2,-1
 103 0 l 2,3,4
 21 0 21 0 21 63 c 2,5,-1
 21 443 l 2,6,7
 21 507 21 507 103 507 c 2,8,-1
 309 507 l 2,9,10
 391 507 391 507 391 443 c 2,11,-1
 391 293 l 1,12,-1
 226 293 l 1,13,-1
 226 380 l 1,14,-1
 186 380 l 1,15,-1
 186 126 l 1,16,-1
 226 126 l 1,17,-1
 226 246 l 1,18,-1
 391 246 l 1,19,-1
 391 63 l 2,0,1
EndSplineSet
EndChar

StartChar: uni0422
Encoding: 1058 1058 143
Width: 439
Flags: W
LayerCount: 2
Fore
SplineSet
418 63 m 2,0,1
 418 0 418 0 336 0 c 2,2,-1
 130 0 l 2,3,4
 48 0 48 0 48 63 c 2,5,-1
 48 349 l 1,6,-1
 7 349 l 1,7,-1
 7 475 l 1,8,-1
 48 475 l 1,9,-1
 48 507 l 1,10,-1
 213 507 l 1,11,-1
 213 475 l 1,12,-1
 418 475 l 1,13,-1
 418 349 l 1,14,-1
 213 349 l 1,15,-1
 213 126 l 1,16,-1
 254 126 l 1,17,-1
 254 317 l 1,18,-1
 418 317 l 1,19,-1
 418 63 l 2,0,1
EndSplineSet
EndChar

StartChar: uni0423
Encoding: 1059 1059 144
Width: 412
Flags: W
LayerCount: 2
Fore
SplineSet
169 0 m 1,0,-1
 21 0 l 1,1,-1
 132 254 l 1,2,-1
 21 507 l 1,3,-1
 169 507 l 1,4,-1
 206 422 l 1,5,-1
 243 507 l 1,6,-1
 391 507 l 1,7,-1
 169 0 l 1,0,-1
EndSplineSet
EndChar

StartChar: uni0424
Encoding: 1060 1060 145
Width: 617
Flags: W
LayerCount: 2
Fore
SplineSet
226 317 m 1,0,-1
 226 380 l 1,1,-1
 186 380 l 1,2,-1
 186 317 l 1,3,-1
 226 317 l 1,0,-1
431 380 m 1,4,-1
 391 380 l 1,5,-1
 391 317 l 1,6,-1
 431 317 l 1,7,-1
 431 380 l 1,4,-1
391 0 m 1,8,-1
 226 0 l 1,9,-1
 226 190 l 1,10,-1
 103 190 l 2,11,12
 21 190 21 190 21 254 c 2,13,-1
 21 443 l 2,14,15
 21 507 21 507 103 507 c 2,16,-1
 391 507 l 1,17,-1
 514 507 l 2,18,19
 596 507 596 507 596 443 c 2,20,-1
 596 254 l 2,21,22
 596 190 596 190 514 190 c 2,23,-1
 391 190 l 1,24,-1
 391 0 l 1,25,-1
 226 0 l 1,26,-1
 391 0 l 1,8,-1
EndSplineSet
EndChar

StartChar: uni0425
Encoding: 1061 1061 146
Width: 412
Flags: W
LayerCount: 2
Fore
SplineSet
243 0 m 1,0,-1
 206 85 l 1,1,-1
 169 0 l 1,2,-1
 21 0 l 1,3,-1
 132 254 l 1,4,-1
 21 507 l 1,5,-1
 169 507 l 1,6,-1
 206 422 l 1,7,-1
 243 507 l 1,8,-1
 391 507 l 1,9,-1
 280 254 l 1,10,-1
 391 0 l 1,11,-1
 243 0 l 1,0,-1
EndSplineSet
EndChar

StartChar: uni0426
Encoding: 1062 1062 147
Width: 508
Flags: W
LayerCount: 2
Fore
SplineSet
21 507 m 1,0,-1
 186 507 l 1,1,-1
 186 126 l 1,2,-1
 226 126 l 1,3,-1
 226 507 l 1,4,-1
 391 507 l 1,5,-1
 392 127 l 1,6,-1
 487 127 l 1,7,-1
 487 0 l 1,8,-1
 21 0 l 1,9,-1
 21 507 l 1,0,-1
EndSplineSet
EndChar

StartChar: uni0427
Encoding: 1063 1063 148
Width: 412
Flags: W
LayerCount: 2
Fore
SplineSet
226 191 m 1,0,-1
 103 191 l 2,1,2
 21 191 21 191 21 254 c 2,3,-1
 21 507 l 1,4,-1
 186 507 l 1,5,-1
 186 317 l 1,6,-1
 226 317 l 1,7,-1
 226 507 l 1,8,-1
 391 507 l 1,9,-1
 226 191 l 1,0,-1
226 507 m 1,10,-1
 391 507 l 1,11,-1
 391 -31 l 1,12,-1
 597 -31 l 1,13,-1
 597 -157 l 1,14,-1
 309 -157 l 2,15,16
 281 -157 281 -157 255 -140 c 0,17,18
 226 -120 226 -120 226 -94 c 2,19,-1
 226 191 l 1,20,-1
 226 507 l 1,10,-1
EndSplineSet
EndChar

StartChar: uni0428
Encoding: 1064 1064 149
Width: 617
Flags: W
LayerCount: 2
Fore
SplineSet
431 507 m 1,0,-1
 596 507 l 1,1,-1
 596 0 l 1,2,-1
 21 0 l 1,3,-1
 21 507 l 1,4,-1
 186 507 l 1,5,-1
 186 126 l 1,6,-1
 226 126 l 1,7,-1
 226 507 l 1,8,-1
 391 507 l 1,9,-1
 391 126 l 1,10,-1
 431 126 l 1,11,-1
 431 507 l 1,0,-1
EndSplineSet
EndChar

StartChar: uni0429
Encoding: 1065 1065 150
Width: 713
Flags: W
LayerCount: 2
Fore
SplineSet
21 0 m 1,0,-1
 21 507 l 1,1,-1
 186 507 l 1,2,-1
 186 126 l 1,3,-1
 226 126 l 1,4,-1
 226 507 l 1,5,-1
 391 507 l 1,6,-1
 391 126 l 1,7,-1
 431 126 l 1,8,-1
 431 507 l 1,9,-1
 596 507 l 1,10,-1
 597 127 l 1,11,-1
 692 127 l 1,12,-1
 692 0 l 1,13,-1
 21 0 l 1,0,-1
EndSplineSet
EndChar

StartChar: uni042A
Encoding: 1066 1066 151
Width: 507
Flags: W
LayerCount: 2
Fore
SplineSet
281 190 m 1,0,-1
 281 127 l 1,1,-1
 321 127 l 1,2,-1
 321 190 l 1,3,-1
 281 190 l 1,0,-1
116 380 m 1,4,-1
 21 380 l 1,5,-1
 21 507 l 1,6,-1
 281 507 l 1,7,-1
 281 317 l 1,8,-1
 404 317 l 2,9,10
 486 317 486 317 486 253 c 2,11,-1
 486 64 l 2,12,13
 486 0 486 0 404 0 c 2,14,-1
 116 0 l 1,15,-1
 116 380 l 1,4,-1
EndSplineSet
EndChar

StartChar: uni042B
Encoding: 1067 1067 152
Width: 616
Flags: W
LayerCount: 2
Fore
SplineSet
391 64 m 2,0,1
 391 0 391 0 309 0 c 2,2,-1
 21 0 l 1,3,-1
 21 507 l 1,4,-1
 186 507 l 1,5,-1
 186 317 l 1,6,-1
 309 317 l 2,7,8
 391 317 391 317 391 253 c 2,9,-1
 391 64 l 2,0,1
226 190 m 1,10,-1
 186 190 l 1,11,-1
 186 127 l 1,12,-1
 226 127 l 1,13,-1
 226 190 l 1,10,-1
595 507 m 1,14,-1
 595 -31 l 1,15,-1
 801 -31 l 1,16,-1
 801 -157 l 1,17,-1
 513 -157 l 2,18,19
 485 -157 485 -157 459 -140 c 0,20,21
 430 -120 430 -120 430 -94 c 2,22,-1
 430 507 l 1,23,-1
 595 507 l 1,24,-1
 595 507 l 1,14,-1
EndSplineSet
EndChar

StartChar: uni042C
Encoding: 1068 1068 153
Width: 412
Flags: W
LayerCount: 2
Fore
SplineSet
391 64 m 2,0,1
 391 0 391 0 309 0 c 2,2,-1
 21 0 l 1,3,-1
 21 507 l 1,4,-1
 186 507 l 1,5,-1
 186 317 l 1,6,-1
 309 317 l 2,7,8
 391 317 391 317 391 253 c 2,9,-1
 391 64 l 2,0,1
226 190 m 1,10,-1
 186 190 l 1,11,-1
 186 127 l 1,12,-1
 226 127 l 1,13,-1
 226 190 l 1,10,-1
EndSplineSet
EndChar

StartChar: uni042D
Encoding: 1069 1069 154
Width: 325
Flags: W
LayerCount: 2
Fore
SplineSet
222 507 m 2,0,1
 304 507 304 507 304 443 c 2,2,-1
 304 63 l 2,3,4
 304 0 304 0 222 0 c 2,5,-1
 24 0 l 1,6,-1
 24 126 l 1,7,-1
 139 126 l 1,8,-1
 139 190 l 1,9,-1
 24 190 l 1,10,-1
 24 317 l 1,11,-1
 139 317 l 1,12,-1
 139 380 l 1,13,-1
 24 380 l 1,14,-1
 24 507 l 1,15,-1
 222 507 l 2,0,1
EndSplineSet
EndChar

StartChar: uni042E
Encoding: 1070 1070 155
Width: 617
Flags: W
LayerCount: 2
Fore
SplineSet
186 190 m 1,0,-1
 186 0 l 1,1,-1
 21 0 l 1,2,-1
 21 507 l 1,3,-1
 186 507 l 1,4,-1
 186 317 l 1,5,-1
 226 317 l 1,6,-1
 226 443 l 2,7,8
 226 507 226 507 308 507 c 2,9,-1
 514 507 l 2,10,11
 596 507 596 507 596 443 c 2,12,-1
 596 63 l 2,13,14
 596 0 596 0 514 0 c 2,15,-1
 308 0 l 2,16,17
 226 0 226 0 226 63 c 2,18,-1
 226 190 l 1,19,-1
 186 190 l 1,0,-1
431 126 m 1,20,-1
 431 380 l 1,21,-1
 391 380 l 1,22,-1
 391 126 l 1,23,-1
 431 126 l 1,20,-1
EndSplineSet
EndChar

StartChar: uni042F
Encoding: 1071 1071 156
Width: 412
Flags: W
LayerCount: 2
Fore
SplineSet
226 317 m 1,0,-1
 226 380 l 1,1,-1
 186 380 l 1,2,-1
 186 317 l 1,3,-1
 226 317 l 1,0,-1
391 507 m 1,4,-1
 391 -31 l 1,5,-1
 597 -31 l 1,6,-1
 597 -157 l 1,7,-1
 309 -157 l 2,8,9
 281 -157 281 -157 255 -140 c 0,10,11
 226 -120 226 -120 226 -94 c 2,12,-1
 226 190 l 1,13,-1
 186 190 l 1,14,-1
 186 0 l 1,15,-1
 21 0 l 1,16,-1
 21 205 l 2,17,18
 21 236 21 236 62 254 c 1,19,20
 21 271 21 271 21 303 c 2,21,-1
 21 443 l 2,22,23
 21 507 21 507 103 507 c 2,24,-1
 391 507 l 1,25,-1
 391 507 l 1,4,-1
EndSplineSet
EndChar

StartChar: uni0430
Encoding: 1072 1072 157
Width: 412
Flags: W
LayerCount: 2
Fore
SplineSet
226 190 m 1,0,-1
 186 190 l 1,1,-1
 186 126 l 1,2,-1
 226 126 l 1,3,-1
 226 190 l 1,0,-1
103 0 m 2,4,5
 21 0 21 0 21 63 c 2,6,-1
 21 254 l 2,7,8
 21 317 21 317 103 317 c 2,9,-1
 226 317 l 1,10,-1
 226 380 l 1,11,-1
 186 380 l 1,12,-1
 186 349 l 1,13,-1
 21 349 l 1,14,-1
 21 443 l 2,15,16
 21 507 21 507 103 507 c 2,17,-1
 309 507 l 2,18,19
 391 507 391 507 391 443 c 2,20,-1
 391 0 l 1,21,-1
 103 0 l 2,4,5
EndSplineSet
EndChar

StartChar: uni0431
Encoding: 1073 1073 158
Width: 412
Flags: W
LayerCount: 2
Fore
SplineSet
186 380 m 1,0,-1
 186 317 l 1,1,-1
 309 317 l 2,2,3
 391 317 391 317 391 254 c 2,4,-1
 391 63 l 2,5,6
 391 0 391 0 309 0 c 2,7,-1
 103 0 l 2,8,9
 21 0 21 0 21 63 c 2,10,-1
 21 443 l 2,11,12
 21 507 21 507 103 507 c 2,13,-1
 391 507 l 1,14,-1
 391 380 l 1,15,-1
 186 380 l 1,16,-1
 186 380 l 1,0,-1
226 126 m 1,17,-1
 226 190 l 1,18,-1
 186 190 l 1,19,-1
 186 126 l 1,20,-1
 226 126 l 1,17,-1
EndSplineSet
EndChar

StartChar: uni0432
Encoding: 1074 1074 159
Width: 412
Flags: W
LayerCount: 2
Fore
SplineSet
226 190 m 1,0,-1
 186 190 l 1,1,-1
 186 126 l 1,2,-1
 226 126 l 1,3,-1
 226 190 l 1,0,-1
226 380 m 1,4,-1
 186 380 l 1,5,-1
 186 317 l 1,6,-1
 226 317 l 1,7,-1
 226 380 l 1,4,-1
391 63 m 2,8,9
 391 0 391 0 309 0 c 2,10,-1
 21 0 l 1,11,-1
 21 507 l 1,12,-1
 309 507 l 2,13,14
 391 507 391 507 391 443 c 2,15,-1
 391 295 l 2,16,17
 391 259 391 259 350 254 c 1,18,19
 391 248 391 248 391 212 c 2,20,-1
 391 63 l 2,8,9
EndSplineSet
EndChar

StartChar: uni0433
Encoding: 1075 1075 160
Width: 362
Flags: W
LayerCount: 2
Fore
SplineSet
186 0 m 1,0,-1
 21 0 l 1,1,-1
 21 507 l 1,2,-1
 341 507 l 1,3,-1
 341 380 l 1,4,-1
 186 380 l 1,5,-1
 186 0 l 1,0,-1
EndSplineSet
EndChar

StartChar: uni0434
Encoding: 1076 1076 161
Width: 412
Flags: W
LayerCount: 2
Fore
SplineSet
226 380 m 1,0,-1
 186 380 l 1,1,-1
 186 126 l 1,2,-1
 226 126 l 1,3,-1
 226 380 l 1,0,-1
391 -94 m 2,4,5
 391 -157 391 -157 309 -157 c 2,6,-1
 21 -157 l 1,7,-1
 21 -31 l 1,8,-1
 226 -31 l 1,9,-1
 226 0 l 1,10,-1
 103 0 l 2,11,12
 21 0 21 0 21 63 c 2,13,-1
 21 443 l 2,14,15
 21 507 21 507 103 507 c 2,16,-1
 391 507 l 1,17,-1
 391 -94 l 2,4,5
EndSplineSet
EndChar

StartChar: uni0435
Encoding: 1077 1077 162
Width: 412
Flags: W
LayerCount: 2
Fore
SplineSet
226 380 m 1,0,-1
 186 380 l 1,1,-1
 186 317 l 1,2,-1
 226 317 l 1,3,-1
 226 380 l 1,0,-1
391 63 m 2,4,5
 391 0 391 0 309 0 c 2,6,-1
 103 0 l 2,7,8
 21 0 21 0 21 63 c 2,9,-1
 21 443 l 2,10,11
 21 507 21 507 103 507 c 2,12,-1
 309 507 l 2,13,14
 391 507 391 507 391 443 c 2,15,-1
 391 190 l 1,16,-1
 186 190 l 1,17,-1
 186 126 l 1,18,-1
 226 126 l 1,19,-1
 226 158 l 1,20,-1
 391 158 l 1,21,-1
 391 63 l 2,4,5
EndSplineSet
EndChar

StartChar: uni0436
Encoding: 1078 1078 163
Width: 635
Flags: W
LayerCount: 2
Fore
SplineSet
397 0 m 1,0,-1
 238 0 l 1,1,-1
 238 78 l 1,2,-1
 184 0 l 1,3,-1
 10 0 l 1,4,-1
 174 254 l 1,5,-1
 10 507 l 1,6,-1
 184 507 l 1,7,-1
 238 429 l 1,8,-1
 238 507 l 1,9,-1
 397 507 l 1,10,-1
 397 429 l 1,11,-1
 451 507 l 1,12,-1
 625 507 l 1,13,-1
 461 254 l 1,14,-1
 625 0 l 1,15,-1
 451 0 l 1,16,-1
 397 78 l 1,17,-1
 397 0 l 1,0,-1
EndSplineSet
EndChar

StartChar: uni0437
Encoding: 1079 1079 164
Width: 412
Flags: W
LayerCount: 2
Fore
SplineSet
391 63 m 2,0,1
 391 0 391 0 309 0 c 2,2,-1
 103 0 l 2,3,4
 21 0 21 0 21 63 c 2,5,-1
 21 158 l 1,6,-1
 186 158 l 1,7,-1
 186 126 l 1,8,-1
 226 126 l 1,9,-1
 226 190 l 1,10,-1
 21 190 l 1,11,-1
 21 317 l 1,12,-1
 226 317 l 1,13,-1
 226 380 l 1,14,-1
 186 380 l 1,15,-1
 186 349 l 1,16,-1
 21 349 l 1,17,-1
 21 443 l 2,18,19
 21 507 21 507 103 507 c 2,20,-1
 309 507 l 2,21,22
 391 507 391 507 391 443 c 2,23,-1
 391 295 l 2,24,25
 391 265 391 265 350 254 c 1,26,27
 391 243 391 243 391 212 c 2,28,-1
 391 63 l 2,0,1
EndSplineSet
EndChar

StartChar: uni0438
Encoding: 1080 1080 165
Width: 412
Flags: W
LayerCount: 2
Fore
SplineSet
186 507 m 1,0,-1
 186 127 l 1,1,-1
 226 127 l 1,2,-1
 226 507 l 1,3,-1
 391 507 l 1,4,-1
 391 0 l 1,5,-1
 226 0 l 1,6,-1
 226 32 l 1,7,8
 185 0 185 0 103 0 c 0,9,10
 75 0 75 0 49 17 c 0,11,12
 21 36 21 36 21 64 c 2,13,-1
 21 507 l 1,14,-1
 186 507 l 1,0,-1
EndSplineSet
EndChar

StartChar: uni0439
Encoding: 1081 1081 166
Width: 412
Flags: W
LayerCount: 2
Fore
SplineSet
150 648 m 1,0,1
 156 591 156 591 203 589 c 0,2,3
 251 588 251 588 257 648 c 1,4,-1
 341 648 l 1,5,6
 333 613 333 613 306 574 c 0,7,8
 280 538 280 538 205 538 c 0,9,10
 131 538 131 538 103 574 c 0,11,12
 75 611 75 611 66 648 c 1,13,-1
 150 648 l 1,0,1
186 507 m 1,14,-1
 186 127 l 1,15,-1
 226 127 l 1,16,-1
 226 507 l 1,17,-1
 391 507 l 1,18,-1
 391 0 l 1,19,-1
 226 0 l 1,20,-1
 226 32 l 1,21,22
 185 0 185 0 103 0 c 0,23,24
 75 0 75 0 49 17 c 0,25,26
 21 36 21 36 21 64 c 2,27,-1
 21 507 l 1,28,-1
 186 507 l 1,14,-1
EndSplineSet
EndChar

StartChar: uni043A
Encoding: 1082 1082 167
Width: 412
Flags: W
LayerCount: 2
Fore
SplineSet
234 0 m 1,0,-1
 180 78 l 1,1,-1
 180 0 l 1,2,-1
 21 0 l 1,3,-1
 21 507 l 1,4,-1
 180 507 l 1,5,-1
 180 429 l 1,6,-1
 234 507 l 1,7,-1
 408 507 l 1,8,-1
 244 254 l 1,9,-1
 408 0 l 1,10,-1
 234 0 l 1,0,-1
EndSplineSet
EndChar

StartChar: uni043B
Encoding: 1083 1083 168
Width: 433
Flags: W
LayerCount: 2
Fore
SplineSet
426 0 m 1,0,-1
 261 0 l 1,1,-1
 220 285 l 1,2,-1
 178 0 l 1,3,-1
 14 0 l 1,4,-1
 96 507 l 1,5,-1
 343 507 l 1,6,-1
 426 0 l 1,0,-1
EndSplineSet
EndChar

StartChar: uni043C
Encoding: 1084 1084 169
Width: 677
Flags: W
LayerCount: 2
Fore
SplineSet
670 0 m 1,0,-1
 505 0 l 1,1,-1
 463 285 l 1,2,-1
 422 0 l 1,3,-1
 258 0 l 1,4,-1
 217 285 l 1,5,-1
 175 0 l 1,6,-1
 10 0 l 1,7,-1
 93 507 l 1,8,-1
 298 507 l 1,9,-1
 340 253 l 1,10,-1
 381 507 l 1,11,-1
 587 507 l 1,12,-1
 670 0 l 1,0,-1
EndSplineSet
EndChar

StartChar: uni043D
Encoding: 1085 1085 170
Width: 412
Flags: W
LayerCount: 2
Fore
SplineSet
226 0 m 1,0,-1
 226 190 l 1,1,-1
 186 190 l 1,2,-1
 186 0 l 1,3,-1
 21 0 l 1,4,-1
 21 507 l 1,5,-1
 186 507 l 1,6,-1
 186 317 l 1,7,-1
 226 317 l 1,8,-1
 226 507 l 1,9,-1
 391 507 l 1,10,-1
 391 0 l 1,11,-1
 226 0 l 1,0,-1
EndSplineSet
EndChar

StartChar: uni043E
Encoding: 1086 1086 171
Width: 412
Flags: W
LayerCount: 2
Fore
SplineSet
226 380 m 1,0,-1
 186 380 l 1,1,-1
 186 126 l 1,2,-1
 226 126 l 1,3,-1
 226 380 l 1,0,-1
391 63 m 2,4,5
 391 0 391 0 309 0 c 2,6,-1
 103 0 l 2,7,8
 21 0 21 0 21 63 c 2,9,-1
 21 443 l 2,10,11
 21 507 21 507 103 507 c 2,12,-1
 309 507 l 2,13,14
 391 507 391 507 391 443 c 2,15,-1
 391 63 l 2,4,5
EndSplineSet
EndChar

StartChar: uni043F
Encoding: 1087 1087 172
Width: 412
Flags: W
LayerCount: 2
Fore
SplineSet
226 0 m 1,0,-1
 226 380 l 1,1,-1
 186 380 l 1,2,-1
 186 0 l 1,3,-1
 21 0 l 1,4,-1
 21 507 l 1,5,-1
 186 507 l 1,6,-1
 186 475 l 1,7,8
 227 507 227 507 309 507 c 0,9,10
 337 507 337 507 363 490 c 0,11,12
 391 471 391 471 391 443 c 2,13,-1
 391 0 l 1,14,-1
 226 0 l 1,0,-1
EndSplineSet
EndChar

StartChar: uni0440
Encoding: 1088 1088 173
Width: 412
Flags: W
LayerCount: 2
Fore
SplineSet
226 380 m 1,0,-1
 186 380 l 1,1,-1
 186 317 l 1,2,-1
 226 317 l 1,3,-1
 226 380 l 1,0,-1
391 254 m 2,4,5
 391 190 391 190 309 190 c 2,6,-1
 186 190 l 1,7,-1
 186 0 l 1,8,-1
 21 0 l 1,9,-1
 21 507 l 1,10,-1
 309 507 l 2,11,12
 391 507 391 507 391 443 c 2,13,-1
 391 254 l 2,4,5
EndSplineSet
EndChar

StartChar: uni0441
Encoding: 1089 1089 174
Width: 412
Flags: W
LayerCount: 2
Fore
SplineSet
391 63 m 2,0,1
 391 0 391 0 309 0 c 2,2,-1
 103 0 l 2,3,4
 21 0 21 0 21 63 c 2,5,-1
 21 443 l 2,6,7
 21 507 21 507 103 507 c 2,8,-1
 309 507 l 2,9,10
 391 507 391 507 391 443 c 2,11,-1
 391 293 l 1,12,-1
 226 293 l 1,13,-1
 226 380 l 1,14,-1
 186 380 l 1,15,-1
 186 126 l 1,16,-1
 226 126 l 1,17,-1
 226 246 l 1,18,-1
 391 246 l 1,19,-1
 391 63 l 2,0,1
EndSplineSet
EndChar

StartChar: uni0442
Encoding: 1090 1090 175
Width: 618
Flags: W
LayerCount: 2
Fore
SplineSet
433 0 m 1,0,-1
 433 380 l 1,1,-1
 391 380 l 1,2,-1
 391 0 l 1,3,-1
 226 0 l 1,4,-1
 226 380 l 1,5,-1
 186 380 l 1,6,-1
 186 0 l 1,7,-1
 21 0 l 1,8,-1
 21 507 l 1,9,-1
 186 507 l 1,10,-1
 186 475 l 1,11,12
 215 507 215 507 309 507 c 0,13,14
 357 507 357 507 383 469 c 1,15,16
 406 495 406 495 443 503 c 0,17,18
 458 507 458 507 514 507 c 0,19,20
 542 507 542 507 568 490 c 0,21,22
 597 470 597 470 597 443 c 2,23,-1
 597 0 l 1,24,-1
 433 0 l 1,0,-1
EndSplineSet
EndChar

StartChar: uni0443
Encoding: 1091 1091 176
Width: 412
Flags: W
LayerCount: 2
Fore
SplineSet
391 -94 m 2,0,1
 391 -157 391 -157 309 -157 c 2,2,-1
 21 -157 l 1,3,-1
 21 -31 l 1,4,-1
 226 -31 l 1,5,-1
 226 0 l 1,6,-1
 103 0 l 2,7,8
 21 0 21 0 21 63 c 2,9,-1
 21 507 l 1,10,-1
 186 507 l 1,11,-1
 186 126 l 1,12,-1
 226 126 l 1,13,-1
 226 507 l 1,14,-1
 391 507 l 1,15,-1
 391 -94 l 2,0,1
EndSplineSet
EndChar

StartChar: uni0444
Encoding: 1092 1092 177
Width: 617
Flags: W
LayerCount: 2
Fore
SplineSet
226 317 m 1,0,-1
 226 380 l 1,1,-1
 186 380 l 1,2,-1
 186 317 l 1,3,-1
 226 317 l 1,0,-1
431 380 m 1,4,-1
 391 380 l 1,5,-1
 391 317 l 1,6,-1
 431 317 l 1,7,-1
 431 380 l 1,4,-1
391 0 m 1,8,-1
 226 0 l 1,9,-1
 226 190 l 1,10,-1
 103 190 l 2,11,12
 21 190 21 190 21 254 c 2,13,-1
 21 443 l 2,14,15
 21 507 21 507 103 507 c 2,16,-1
 391 507 l 1,17,-1
 514 507 l 2,18,19
 596 507 596 507 596 443 c 2,20,-1
 596 254 l 2,21,22
 596 190 596 190 514 190 c 2,23,-1
 391 190 l 1,24,-1
 391 0 l 1,25,-1
 226 0 l 1,26,-1
 391 0 l 1,8,-1
EndSplineSet
EndChar

StartChar: uni0445
Encoding: 1093 1093 178
Width: 412
Flags: W
LayerCount: 2
Fore
SplineSet
243 0 m 1,0,-1
 206 85 l 1,1,-1
 169 0 l 1,2,-1
 21 0 l 1,3,-1
 132 254 l 1,4,-1
 21 507 l 1,5,-1
 169 507 l 1,6,-1
 206 422 l 1,7,-1
 243 507 l 1,8,-1
 391 507 l 1,9,-1
 280 254 l 1,10,-1
 391 0 l 1,11,-1
 243 0 l 1,0,-1
EndSplineSet
EndChar

StartChar: uni0446
Encoding: 1094 1094 179
Width: 508
Flags: W
LayerCount: 2
Fore
SplineSet
21 507 m 1,0,-1
 186 507 l 1,1,-1
 186 126 l 1,2,-1
 226 126 l 1,3,-1
 226 507 l 1,4,-1
 391 507 l 1,5,-1
 392 127 l 1,6,-1
 487 127 l 1,7,-1
 487 0 l 1,8,-1
 21 0 l 1,9,-1
 21 507 l 1,0,-1
EndSplineSet
EndChar

StartChar: uni0447
Encoding: 1095 1095 180
Width: 412
Flags: W
LayerCount: 2
Fore
SplineSet
226 507 m 1,0,-1
 391 507 l 1,1,-1
 391 0 l 1,2,-1
 226 0 l 1,3,-1
 226 191 l 1,4,-1
 103 191 l 2,5,6
 21 191 21 191 21 254 c 2,7,-1
 21 507 l 1,8,-1
 186 507 l 1,9,-1
 186 317 l 1,10,-1
 226 317 l 1,11,-1
 226 507 l 1,12,-1
 391 507 l 1,13,-1
 226 507 l 1,0,-1
EndSplineSet
EndChar

StartChar: uni0448
Encoding: 1096 1096 181
Width: 618
Flags: W
LayerCount: 2
Fore
SplineSet
185 507 m 1,0,-1
 185 127 l 1,1,-1
 227 127 l 1,2,-1
 227 507 l 1,3,-1
 392 507 l 1,4,-1
 392 127 l 1,5,-1
 432 127 l 1,6,-1
 432 507 l 1,7,-1
 597 507 l 1,8,-1
 597 0 l 1,9,-1
 432 0 l 1,10,-1
 432 32 l 1,11,12
 403 0 403 0 309 0 c 0,13,14
 261 0 261 0 235 38 c 1,15,16
 212 12 212 12 175 4 c 0,17,18
 160 0 160 0 104 0 c 0,19,20
 76 0 76 0 50 17 c 0,21,22
 21 37 21 37 21 64 c 2,23,-1
 21 507 l 1,24,-1
 185 507 l 1,0,-1
EndSplineSet
EndChar

StartChar: uni0449
Encoding: 1097 1097 182
Width: 713
Flags: W
LayerCount: 2
Fore
SplineSet
432 0 m 1,0,-1
 432 32 l 1,1,2
 403 0 403 0 309 0 c 0,3,4
 261 0 261 0 235 38 c 1,5,6
 212 12 212 12 175 4 c 0,7,8
 160 0 160 0 104 0 c 0,9,10
 76 0 76 0 50 17 c 0,11,12
 21 37 21 37 21 64 c 2,13,-1
 21 507 l 1,14,-1
 185 507 l 1,15,-1
 185 127 l 1,16,-1
 227 127 l 1,17,-1
 227 507 l 1,18,-1
 392 507 l 1,19,-1
 392 127 l 1,20,-1
 432 127 l 1,21,-1
 432 507 l 1,22,-1
 597 507 l 1,23,-1
 597 127 l 1,24,-1
 692 127 l 1,25,-1
 692 0 l 1,26,-1
 432 0 l 1,0,-1
EndSplineSet
EndChar

StartChar: uni044A
Encoding: 1098 1098 183
Width: 507
Flags: W
LayerCount: 2
Fore
SplineSet
281 190 m 1,0,-1
 281 127 l 1,1,-1
 321 127 l 1,2,-1
 321 190 l 1,3,-1
 281 190 l 1,0,-1
116 380 m 1,4,-1
 21 380 l 1,5,-1
 21 507 l 1,6,-1
 281 507 l 1,7,-1
 281 317 l 1,8,-1
 404 317 l 2,9,10
 486 317 486 317 486 253 c 2,11,-1
 486 64 l 2,12,13
 486 0 486 0 404 0 c 2,14,-1
 116 0 l 1,15,-1
 116 380 l 1,4,-1
EndSplineSet
EndChar

StartChar: uni044B
Encoding: 1099 1099 184
Width: 616
Flags: W
LayerCount: 2
Fore
SplineSet
391 64 m 2,0,1
 391 0 391 0 309 0 c 2,2,-1
 21 0 l 1,3,-1
 21 507 l 1,4,-1
 186 507 l 1,5,-1
 186 317 l 1,6,-1
 309 317 l 2,7,8
 391 317 391 317 391 253 c 2,9,-1
 391 64 l 2,0,1
226 190 m 1,10,-1
 186 190 l 1,11,-1
 186 127 l 1,12,-1
 226 127 l 1,13,-1
 226 190 l 1,10,-1
430 507 m 1,14,-1
 595 507 l 1,15,-1
 595 0 l 1,16,-1
 430 0 l 1,17,-1
 430 507 l 1,14,-1
EndSplineSet
EndChar

StartChar: uni044C
Encoding: 1100 1100 185
Width: 412
Flags: W
LayerCount: 2
Fore
SplineSet
391 64 m 2,0,1
 391 0 391 0 309 0 c 2,2,-1
 21 0 l 1,3,-1
 21 507 l 1,4,-1
 186 507 l 1,5,-1
 186 317 l 1,6,-1
 309 317 l 2,7,8
 391 317 391 317 391 253 c 2,9,-1
 391 64 l 2,0,1
226 190 m 1,10,-1
 186 190 l 1,11,-1
 186 127 l 1,12,-1
 226 127 l 1,13,-1
 226 190 l 1,10,-1
EndSplineSet
EndChar

StartChar: uni044D
Encoding: 1101 1101 186
Width: 325
Flags: W
LayerCount: 2
Fore
SplineSet
222 507 m 2,0,1
 304 507 304 507 304 443 c 2,2,-1
 304 63 l 2,3,4
 304 0 304 0 222 0 c 2,5,-1
 24 0 l 1,6,-1
 24 126 l 1,7,-1
 139 126 l 1,8,-1
 139 190 l 1,9,-1
 24 190 l 1,10,-1
 24 317 l 1,11,-1
 139 317 l 1,12,-1
 139 380 l 1,13,-1
 24 380 l 1,14,-1
 24 507 l 1,15,-1
 222 507 l 2,0,1
EndSplineSet
EndChar

StartChar: uni044E
Encoding: 1102 1102 187
Width: 617
Flags: W
LayerCount: 2
Fore
SplineSet
186 190 m 1,0,-1
 186 0 l 1,1,-1
 21 0 l 1,2,-1
 21 507 l 1,3,-1
 186 507 l 1,4,-1
 186 317 l 1,5,-1
 226 317 l 1,6,-1
 226 443 l 2,7,8
 226 507 226 507 308 507 c 2,9,-1
 514 507 l 2,10,11
 596 507 596 507 596 443 c 2,12,-1
 596 63 l 2,13,14
 596 0 596 0 514 0 c 2,15,-1
 308 0 l 2,16,17
 226 0 226 0 226 63 c 2,18,-1
 226 190 l 1,19,-1
 186 190 l 1,0,-1
431 126 m 1,20,-1
 431 380 l 1,21,-1
 391 380 l 1,22,-1
 391 126 l 1,23,-1
 431 126 l 1,20,-1
EndSplineSet
EndChar

StartChar: uni044F
Encoding: 1103 1103 188
Width: 412
Flags: W
LayerCount: 2
Fore
SplineSet
21 0 m 1,0,-1
 21 205 l 2,1,2
 21 236 21 236 62 254 c 1,3,4
 21 271 21 271 21 303 c 2,5,-1
 21 443 l 2,6,7
 21 507 21 507 103 507 c 2,8,-1
 391 507 l 1,9,-1
 391 0 l 1,10,-1
 226 0 l 1,11,-1
 226 190 l 1,12,-1
 186 190 l 1,13,-1
 186 0 l 1,14,-1
 21 0 l 1,0,-1
186 317 m 1,15,-1
 226 317 l 1,16,-1
 226 380 l 1,17,-1
 186 380 l 1,18,-1
 186 317 l 1,15,-1
EndSplineSet
EndChar

StartChar: circumflex
Encoding: 710 710 189
Width: 418
Flags: W
LayerCount: 2
Fore
SplineSet
260 538 m 1,0,-1
 205 610 l 1,1,-1
 153 538 l 1,2,-1
 69 538 l 1,3,-1
 141 647 l 1,4,-1
 271 647 l 1,5,-1
 344 538 l 1,6,-1
 260 538 l 1,0,-1
EndSplineSet
EndChar

StartChar: tilde
Encoding: 732 732 192
Width: 408
Flags: W
LayerCount: 2
Fore
SplineSet
316 642 m 1,0,1
 318 597 318 597 297.5 570 c 128,-1,2
 277 543 277 543 246 543 c 0,3,4
 234 543 234 543 221.5 551 c 128,-1,5
 209 559 209 559 196.5 569 c 128,-1,6
 184 579 184 579 172.5 587 c 128,-1,7
 161 595 161 595 151 595 c 0,8,9
 142 595 142 595 136 584 c 128,-1,10
 130 573 130 573 128 544 c 1,11,-1
 87 544 l 1,12,13
 90 642 90 642 157 642 c 0,14,15
 169 642 169 642 181.5 634 c 128,-1,16
 194 626 194 626 206 616 c 128,-1,17
 218 606 218 606 228.5 598 c 128,-1,18
 239 590 239 590 248 590 c 256,19,20
 257 590 257 590 263.5 601.5 c 128,-1,21
 270 613 270 613 273 642 c 1,22,-1
 316 642 l 1,0,1
EndSplineSet
EndChar

StartChar: oe
Encoding: 339 339 194
Width: 617
Flags: W
LayerCount: 2
Fore
SplineSet
428 380 m 1,0,-1
 388 380 l 1,1,-1
 388 317 l 1,2,-1
 428 317 l 1,3,-1
 428 380 l 1,0,-1
593 63 m 2,4,5
 593 36 593 36 566 18 c 256,6,7
 539 0 539 0 511 0 c 2,8,-1
 305 0 l 2,9,10
 277 0 277 0 250 18 c 256,11,12
 223 36 223 36 223 63 c 2,13,-1
 223 443 l 2,14,15
 223 471 223 471 251 490 c 0,16,17
 277 507 277 507 305 507 c 2,18,-1
 511 507 l 2,19,20
 539 507 539 507 565 490 c 0,21,22
 593 471 593 471 593 443 c 2,23,-1
 593 190 l 1,24,-1
 388 190 l 1,25,-1
 388 126 l 1,26,-1
 428 126 l 1,27,-1
 428 158 l 1,28,-1
 593 158 l 1,29,-1
 593 63 l 2,4,5
222 380 m 1,30,-1
 182 380 l 1,31,-1
 182 126 l 1,32,-1
 222 126 l 1,33,-1
 222 380 l 1,30,-1
387 63 m 2,34,35
 387 36 387 36 360 18 c 256,36,37
 333 0 333 0 305 0 c 2,38,-1
 99 0 l 2,39,40
 71 0 71 0 44 18 c 256,41,42
 17 36 17 36 17 63 c 2,43,-1
 17 443 l 2,44,45
 17 471 17 471 45 490 c 0,46,47
 71 507 71 507 99 507 c 2,48,-1
 305 507 l 2,49,50
 333 507 333 507 359 490 c 0,51,52
 387 471 387 471 387 443 c 2,53,-1
 387 63 l 2,34,35
EndSplineSet
EndChar

StartChar: exclamdown
Encoding: 161 161 196
Width: 206
Flags: W
LayerCount: 2
Fore
SplineSet
186 244 m 1,0,-1
 186 -104 l 1,1,-1
 21 -104 l 1,2,-1
 21 244 l 1,3,-1
 186 244 l 1,0,-1
186 402 m 1,4,-1
 186 276 l 1,5,-1
 21 276 l 1,6,-1
 21 402 l 1,7,-1
 186 402 l 1,4,-1
EndSplineSet
EndChar

StartChar: cent
Encoding: 162 162 197
Width: 412
Flags: W
LayerCount: 2
Fore
SplineSet
157 41 m 1,0,-1
 103 41 l 2,1,2
 21 41 21 41 21 104 c 2,3,-1
 21 403 l 2,4,5
 21 467 21 467 103 467 c 2,6,-1
 157 467 l 1,7,-1
 157 507 l 1,8,-1
 274 507 l 1,9,-1
 274 467 l 1,10,-1
 309 467 l 2,11,12
 391 467 391 467 391 403 c 2,13,-1
 391 293 l 1,14,-1
 226 293 l 1,15,-1
 226 340 l 1,16,-1
 186 340 l 1,17,-1
 186 167 l 1,18,-1
 226 167 l 1,19,-1
 226 246 l 1,20,-1
 391 246 l 1,21,-1
 391 104 l 2,22,23
 391 41 391 41 309 41 c 2,24,-1
 274 41 l 1,25,-1
 274 0 l 1,26,-1
 157 0 l 1,27,-1
 157 41 l 1,0,-1
EndSplineSet
EndChar

StartChar: sterling
Encoding: 163 163 198
Width: 354
Flags: W
LayerCount: 2
Fore
SplineSet
7 106 m 1,0,-1
 21 106 l 1,1,-1
 21 193 l 1,2,-1
 1 193 l 1,3,-1
 1 319 l 1,4,-1
 21 319 l 1,5,-1
 21 443 l 2,6,7
 21 507 21 507 103 507 c 2,8,-1
 330 507 l 1,9,-1
 330 380 l 1,10,-1
 186 380 l 1,11,-1
 186 319 l 1,12,-1
 259 319 l 1,13,-1
 259 192 l 1,14,-1
 186 192 l 1,15,-1
 186 106 l 1,16,-1
 330 106 l 1,17,-1
 330 0 l 1,18,-1
 7 0 l 1,19,-1
 7 106 l 1,0,-1
EndSplineSet
EndChar

StartChar: yen
Encoding: 165 165 199
Width: 412
Flags: W
LayerCount: 2
Fore
SplineSet
125 258 m 1,0,1
 21 258 21 258 21 361 c 2,2,-1
 21 507 l 1,3,-1
 186 507 l 1,4,-1
 186 384 l 1,5,-1
 226 384 l 1,6,-1
 226 507 l 1,7,-1
 391 507 l 1,8,-1
 391 361 l 2,9,10
 391 258 391 258 290 258 c 1,11,-1
 290 0 l 1,12,-1
 125 0 l 1,13,-1
 125 258 l 1,0,1
21 108 m 1,14,-1
 21 147 l 1,15,-1
 394 147 l 1,16,-1
 394 108 l 1,17,-1
 21 108 l 1,14,-1
21 171 m 1,18,-1
 21 209 l 1,19,-1
 394 209 l 1,20,-1
 394 171 l 1,21,-1
 21 171 l 1,18,-1
EndSplineSet
EndChar

StartChar: dieresis
Encoding: 168 168 200
Width: 409
Flags: W
LayerCount: 2
Fore
SplineSet
175 594 m 0,0,1
 175 574 175 574 159 562 c 128,-1,2
 143 550 143 550 123 550 c 256,3,4
 103 550 103 550 86.5 562 c 128,-1,5
 70 574 70 574 70 594 c 256,6,7
 70 614 70 614 86 626 c 128,-1,8
 102 638 102 638 123 638 c 0,9,10
 143 638 143 638 159 625.5 c 128,-1,11
 175 613 175 613 175 594 c 0,0,1
345 594 m 0,12,13
 345 574 345 574 329 562 c 128,-1,14
 313 550 313 550 293 550 c 0,15,16
 272 550 272 550 256 562 c 128,-1,17
 240 574 240 574 240 594 c 0,18,19
 240 613 240 613 256.5 625.5 c 128,-1,20
 273 638 273 638 293 638 c 256,21,22
 313 638 313 638 329 625.5 c 128,-1,23
 345 613 345 613 345 594 c 0,12,13
EndSplineSet
EndChar

StartChar: macron
Encoding: 175 175 201
Width: 412
Flags: W
LayerCount: 2
Fore
SplineSet
64 618 m 1,0,-1
 342 618 l 1,1,-1
 342 559 l 1,2,-1
 64 559 l 1,3,-1
 64 618 l 1,0,-1
EndSplineSet
EndChar

StartChar: acute
Encoding: 180 180 202
Width: 509
Flags: W
LayerCount: 2
Fore
SplineSet
225 538 m 1,0,-1
 143 538 l 1,1,-1
 225 648 l 1,2,-1
 334 648 l 1,3,-1
 225 538 l 1,0,-1
EndSplineSet
EndChar

StartChar: cedilla
Encoding: 184 184 203
Width: 363
Flags: W
LayerCount: 2
Fore
SplineSet
275 -78 m 2,0,1
 275 -123 275 -123 231.5 -134.5 c 128,-1,2
 188 -146 188 -146 116 -138 c 1,3,-1
 116 -102 l 1,4,5
 159 -109 159 -109 179 -100.5 c 128,-1,6
 199 -92 199 -92 199 -81 c 0,7,8
 199 -71 199 -71 185 -64 c 128,-1,9
 171 -57 171 -57 147 -58 c 1,10,-1
 201 28 l 1,11,-1
 230 28 l 1,12,-1
 203 -17 l 1,13,14
 232 -17 232 -17 253.5 -26.5 c 128,-1,15
 275 -36 275 -36 275 -61 c 2,16,-1
 275 -78 l 2,0,1
EndSplineSet
EndChar

StartChar: questiondown
Encoding: 191 191 204
Width: 412
Flags: W
LayerCount: 2
Fore
SplineSet
393 416 m 1,0,-1
 393 290 l 1,1,-1
 228 290 l 1,2,-1
 228 416 l 1,3,-1
 393 416 l 1,0,-1
23 162 m 2,4,5
 23 187 23 187 50 207 c 0,6,7
 77 226 77 226 105 226 c 2,8,-1
 228 226 l 1,9,-1
 228 258 l 1,10,-1
 393 258 l 1,11,-1
 393 162 l 2,12,13
 393 136 393 136 365 117 c 0,14,15
 338 99 338 99 311 99 c 2,16,-1
 187 99 l 1,17,-1
 187 36 l 1,18,-1
 228 36 l 1,19,-1
 228 67 l 1,20,-1
 393 67 l 1,21,-1
 393 -26 l 2,22,23
 393 -52 393 -52 366 -71 c 256,24,25
 339 -90 339 -90 311 -90 c 2,26,-1
 105 -90 l 2,27,28
 77 -90 77 -90 50 -71 c 256,29,30
 23 -52 23 -52 23 -26 c 2,31,-1
 23 162 l 2,4,5
EndSplineSet
EndChar

StartChar: Thorn
Encoding: 222 222 234
Width: 412
Flags: W
LayerCount: 2
Fore
SplineSet
226 283 m 1,0,-1
 186 283 l 1,1,-1
 186 220 l 1,2,-1
 226 220 l 1,3,-1
 226 283 l 1,0,-1
391 157 m 2,4,5
 391 93 391 93 309 93 c 2,6,-1
 186 93 l 1,7,-1
 186 0 l 1,8,-1
 21 0 l 1,9,-1
 21 507 l 1,10,-1
 186 507 l 1,11,-1
 186 410 l 1,12,-1
 309 410 l 2,13,14
 391 410 391 410 391 346 c 2,15,-1
 391 157 l 2,4,5
EndSplineSet
EndChar

StartChar: eth
Encoding: 240 240 252
Width: 412
Flags: W
LayerCount: 2
Fore
SplineSet
186 126 m 1,0,-1
 226 126 l 1,1,-1
 226 190 l 1,2,-1
 186 190 l 1,3,-1
 186 126 l 1,0,-1
21 254 m 2,4,5
 21 317 21 317 103 317 c 2,6,-1
 226 317 l 1,7,-1
 226 380 l 1,8,-1
 186 380 l 1,9,-1
 186 349 l 1,10,-1
 21 349 l 1,11,-1
 21 443 l 2,12,13
 21 507 21 507 103 507 c 2,14,-1
 309 507 l 2,15,16
 391 507 391 507 391 443 c 2,17,-1
 391 63 l 2,18,19
 391 0 391 0 309 0 c 2,20,-1
 103 0 l 2,21,22
 21 0 21 0 21 63 c 2,23,-1
 21 254 l 2,4,5
EndSplineSet
EndChar

StartChar: thorn
Encoding: 254 254 265
Width: 412
Flags: W
LayerCount: 2
Fore
SplineSet
226 283 m 1,0,-1
 186 283 l 1,1,-1
 186 220 l 1,2,-1
 226 220 l 1,3,-1
 226 283 l 1,0,-1
391 157 m 2,4,5
 391 93 391 93 309 93 c 2,6,-1
 186 93 l 1,7,-1
 186 0 l 1,8,-1
 21 0 l 1,9,-1
 21 507 l 1,10,-1
 186 507 l 1,11,-1
 186 410 l 1,12,-1
 309 410 l 2,13,14
 391 410 391 410 391 346 c 2,15,-1
 391 157 l 2,4,5
EndSplineSet
EndChar

StartChar: caron
Encoding: 711 711 268
Width: 418
Flags: W
LayerCount: 2
Fore
SplineSet
152 648 m 1,0,-1
 207 576 l 1,1,-1
 259 648 l 1,2,-1
 343 648 l 1,3,-1
 271 539 l 1,4,-1
 141 539 l 1,5,-1
 68 648 l 1,6,-1
 152 648 l 1,0,-1
EndSplineSet
EndChar

StartChar: breve
Encoding: 728 728 269
Width: 418
Flags: W
LayerCount: 2
Fore
SplineSet
152 648 m 1,0,1
 158 591 158 591 205 589 c 0,2,3
 253 588 253 588 259 648 c 1,4,-1
 343 648 l 1,5,6
 335 613 335 613 308 574 c 0,7,8
 282 538 282 538 207 538 c 0,9,10
 133 538 133 538 105 574 c 0,11,12
 77 611 77 611 68 648 c 1,13,-1
 152 648 l 1,0,1
EndSplineSet
EndChar

StartChar: nundagesh
Encoding: 730 730 270
Width: 412
Flags: W
LayerCount: 2
Fore
SplineSet
177 595 m 256,0,1
 177 581 177 581 186 572 c 128,-1,2
 195 563 195 563 209 563 c 256,3,4
 223 563 223 563 232 572 c 128,-1,5
 241 581 241 581 241 595 c 256,6,7
 241 609 241 609 232 618 c 128,-1,8
 223 627 223 627 209 627 c 256,9,10
 195 627 195 627 186 618 c 128,-1,11
 177 609 177 609 177 595 c 256,0,1
128 595 m 256,12,13
 128 629 128 629 151.5 653 c 128,-1,14
 175 677 175 677 209 677 c 256,15,16
 243 677 243 677 267 653 c 128,-1,17
 291 629 291 629 291 595 c 256,18,19
 291 561 291 561 267 537.5 c 128,-1,20
 243 514 243 514 209 514 c 256,21,22
 175 514 175 514 151.5 537.5 c 128,-1,23
 128 561 128 561 128 595 c 256,12,13
EndSplineSet
EndChar

StartChar: hungarumlaut
Encoding: 733 733 271
Width: 500
Flags: W
LayerCount: 2
Fore
SplineSet
291 648 m 1,0,-1
 363 648 l 1,1,-1
 286 538 l 1,2,-1
 214 538 l 1,3,-1
 291 648 l 1,0,-1
181 648 m 1,4,-1
 253 648 l 1,5,-1
 176 538 l 1,6,-1
 104 538 l 1,7,-1
 181 648 l 1,4,-1
EndSplineSet
EndChar

StartChar: Lslash
Encoding: 321 321 280
Width: 206
Flags: W
LayerCount: 2
Fore
SplineSet
-89 165 m 1,0,-1
 259 311 l 1,1,-1
 289 237 l 1,2,-1
 -59 91 l 1,3,-1
 -89 165 l 1,0,-1
21 -157 m 1,4,-1
 21 507 l 1,5,-1
 186 507 l 1,6,-1
 186 -31 l 1,7,-1
 433 -31 l 1,8,-1
 433 -157 l 1,9,-1
 21 -157 l 1,4,-1
EndSplineSet
EndChar

StartChar: ogonek
Encoding: 731 731 282
Width: 363
Flags: W
LayerCount: 2
Fore
SplineSet
149 -61 m 0,0,1
 149 -35 149 -35 194 28 c 1,2,-1
 223 28 l 1,3,4
 196 -73 196 -73 230 -92 c 0,5,6
 264 -113 264 -113 308 -102 c 1,7,-1
 308 -138 l 1,8,9
 223 -153 223 -153 183.5 -132.5 c 128,-1,10
 144 -112 144 -112 149 -61 c 0,0,1
EndSplineSet
EndChar

StartChar: dotaccent
Encoding: 729 729 285
Width: 402
Flags: W
LayerCount: 2
Fore
SplineSet
158 558 m 1,0,-1
 158 630 l 1,1,-1
 254 630 l 1,2,-1
 254 558 l 1,3,-1
 158 558 l 1,0,-1
EndSplineSet
EndChar

StartChar: lslash
Encoding: 322 322 309
Width: 321
Flags: W
LayerCount: 2
Fore
SplineSet
-71 285 m 1,0,-1
 252 379 l 1,1,-1
 274 303 l 1,2,-1
 -49 209 l 1,3,-1
 -71 285 l 1,0,-1
21 0 m 1,4,-1
 21 507 l 1,5,-1
 186 507 l 1,6,-1
 186 126 l 1,7,-1
 293 126 l 1,8,-1
 293 0 l 1,9,-1
 21 0 l 1,4,-1
EndSplineSet
EndChar

StartChar: dmacron
Encoding: 273 273 316
Width: 412
Flags: W
LayerCount: 2
Fore
SplineSet
186 380 m 1,0,-1
 186 126 l 1,1,-1
 226 126 l 1,2,-1
 226 380 l 1,3,-1
 186 380 l 1,0,-1
103 0 m 2,4,5
 21 0 21 0 21 63 c 2,6,-1
 21 443 l 2,7,8
 21 507 21 507 103 507 c 2,9,-1
 226 507 l 1,10,-1
 226 537 l 1,11,-1
 173 537 l 1,12,-1
 173 585 l 1,13,-1
 226 585 l 1,14,-1
 226 634 l 1,15,-1
 391 634 l 1,16,-1
 391 585 l 1,17,-1
 423 585 l 1,18,-1
 423 537 l 1,19,-1
 391 537 l 1,20,-1
 391 0 l 1,21,-1
 103 0 l 2,4,5
EndSplineSet
EndChar

